<?xml version="1.0" standalone="no"?>
<!DOCTYPE svg PUBLIC "-//W3C//DTD SVG 20010904//EN"
 "http://www.w3.org/TR/2001/REC-SVG-20010904/DTD/svg10.dtd">
<svg version="1.0" xmlns="http://www.w3.org/2000/svg"
 width="225.000000pt" height="225.000000pt" viewBox="0 0 225.000000 225.000000"
 preserveAspectRatio="xMidYMid meet">

<g transform="translate(0.000000,225.000000) scale(0.100000,-0.100000)"
fill="#000000" stroke="none">
<path d="M713 1831 c-227 -81 -415 -149 -418 -152 -5 -5 109 -1032 120 -1085
4 -16 90 -69 352 -214 192 -106 353 -193 358 -193 6 0 166 87 358 193 261 145
348 198 352 214 14 67 124 1081 118 1086 -5 4 -138 53 -298 110 -159 56 -344
122 -410 145 l-120 43 -412 -147z m681 -651 c140 -313 251 -572 248 -575 -3
-3 -47 -5 -98 -5 l-92 0 -54 135 -53 135 -221 0 -220 0 -49 -122 c-26 -68 -52
-129 -58 -135 -14 -18 -201 -18 -194 0 2 6 121 272 262 590 191 427 261 574
267 563 5 -9 123 -273 262 -586z"/>
<path d="M1051 1218 c-39 -95 -71 -176 -71 -180 0 -5 65 -8 145 -8 80 0 145 4
145 8 0 9 -138 344 -144 349 -2 2 -35 -74 -75 -169z"/>
</g>
</svg>
