<?xml version="1.0" standalone="no"?>
<!DOCTYPE svg PUBLIC "-//W3C//DTD SVG 20010904//EN"
 "http://www.w3.org/TR/2001/REC-SVG-20010904/DTD/svg10.dtd">
<svg version="1.0" xmlns="http://www.w3.org/2000/svg"
 width="288.000000pt" height="175.000000pt" viewBox="0 0 288.000000 175.000000"
 preserveAspectRatio="xMidYMid meet">

<g transform="translate(0.000000,175.000000) scale(0.100000,-0.100000)"
fill="#000000" stroke="none">
<path d="M1103 810 c-25 -10 -47 -45 -38 -60 9 -15 45 -12 51 4 13 35 64 24
64 -14 0 -13 -11 -19 -42 -23 -75 -10 -113 -82 -68 -127 23 -23 68 -26 96 -6
17 13 21 12 37 -2 16 -15 19 -14 39 6 17 17 20 24 10 34 -7 7 -12 41 -12 84 0
66 -2 74 -26 93 -28 22 -73 26 -111 11z m77 -144 c0 -27 -26 -59 -43 -53 -25
8 -31 36 -13 56 27 29 56 27 56 -3z"/>
<path d="M1372 804 c-12 -8 -22 -10 -22 -5 0 6 -14 11 -30 11 l-31 0 3 -117 3
-118 28 -3 27 -3 0 83 c0 91 8 112 36 106 16 -3 20 -15 24 -93 5 -89 5 -90 32
-93 l27 -3 3 93 c3 92 3 93 28 93 25 0 25 -1 28 -93 l3 -93 27 3 27 3 3 100
c2 90 0 103 -18 123 -26 27 -50 28 -82 3 -24 -20 -25 -20 -41 0 -20 23 -45 24
-75 3z"/>
<path d="M1666 799 c-31 -25 -35 -59 -6 -59 11 0 29 9 40 20 17 17 24 18 41
10 25 -14 21 -44 -6 -48 -77 -11 -105 -35 -105 -86 0 -57 67 -86 117 -51 18
13 22 13 33 0 10 -12 15 -12 36 1 19 13 22 20 14 34 -6 10 -10 48 -10 85 0 57
-3 69 -25 90 -31 32 -91 34 -129 4z m94 -128 c0 -10 -8 -29 -19 -42 -16 -20
-21 -21 -35 -10 -21 18 -20 47 2 60 28 17 52 13 52 -8z"/>
<path d="M2100 793 c-77 -69 -38 -223 55 -223 102 0 142 176 52 230 -44 27
-71 25 -107 -7z m88 -94 c2 -51 -1 -69 -13 -79 -24 -20 -46 7 -52 63 -6 55 10
89 40 85 20 -3 22 -10 25 -69z"/>
<path d="M2370 800 c-16 -16 -20 -17 -20 -5 0 10 -10 15 -30 15 l-31 0 3 -117
3 -118 28 -3 27 -3 0 83 c0 91 8 112 36 106 16 -3 20 -15 24 -93 5 -89 5 -90
33 -93 l27 -3 0 105 c0 93 -3 109 -20 126 -11 11 -29 20 -40 20 -11 0 -29 -9
-40 -20z"/>
<path d="M1870 790 c0 -17 7 -20 40 -20 22 0 40 -3 40 -7 0 -5 -20 -37 -45
-72 -25 -36 -45 -75 -45 -89 0 -22 3 -23 28 -16 35 10 90 11 125 1 24 -7 27
-5 27 18 0 20 -7 27 -45 38 l-46 13 41 57 c22 32 40 67 40 77 0 18 -7 20 -80
20 -73 0 -80 -2 -80 -20z"/>
<path d="M2035 541 c-7 -12 12 -24 25 -16 11 7 4 25 -10 25 -5 0 -11 -4 -15
-9z"/>
<path d="M1370 445 c0 -57 4 -95 10 -95 6 0 10 5 10 12 0 9 3 9 12 0 19 -19
55 -14 72 10 37 53 3 137 -50 124 -21 -6 -24 -3 -24 19 0 16 -6 25 -15 25 -12
0 -15 -17 -15 -95z m79 21 c7 -8 11 -32 9 -53 -3 -33 -6 -38 -28 -38 -22 0
-25 5 -28 38 -3 36 10 67 28 67 4 0 13 -6 19 -14z"/>
<path d="M1048 494 c-4 -3 -2 -18 2 -32 5 -15 14 -46 20 -69 14 -55 36 -56 45
-3 4 22 10 40 14 40 4 0 13 -18 20 -41 19 -65 39 -41 65 79 12 51 -12 39 -25
-13 -6 -25 -15 -45 -19 -45 -4 0 -11 19 -16 42 -13 59 -30 58 -45 -4 l-13 -53
-13 44 c-14 47 -25 65 -35 55z"/>
<path d="M1270 493 c-42 -15 -56 -96 -22 -126 24 -22 66 -22 87 -1 22 22 11
30 -19 14 -31 -16 -56 -7 -56 20 0 17 6 20 45 20 38 0 45 3 45 20 0 23 -34 60
-52 59 -7 0 -20 -3 -28 -6z m34 -19 c28 -11 18 -34 -14 -34 -32 0 -37 9 -18
28 14 14 12 14 32 6z"/>
<path d="M1562 489 c-18 -7 -23 -15 -20 -36 2 -22 11 -30 38 -39 42 -14 54
-44 18 -44 -13 0 -29 5 -35 11 -6 6 -17 9 -23 7 -24 -8 20 -38 54 -38 37 0 60
20 54 46 -3 18 -17 28 -62 44 -27 10 -28 12 -14 26 13 13 20 14 38 4 28 -15
41 -3 16 16 -23 16 -32 16 -64 3z"/>
<path d="M1710 493 c-42 -15 -56 -96 -22 -126 24 -22 66 -22 87 -1 22 22 11
30 -19 14 -31 -16 -56 -7 -56 20 0 17 6 20 45 20 38 0 45 3 45 20 0 23 -34 60
-52 59 -7 0 -20 -3 -28 -6z m34 -19 c28 -11 18 -34 -14 -34 -32 0 -37 9 -18
28 14 14 12 14 32 6z"/>
<path d="M1906 478 c47 -151 60 -159 92 -60 25 77 26 82 13 82 -5 0 -18 -26
-29 -57 l-19 -58 -18 58 c-11 33 -24 57 -33 57 -9 0 -11 -7 -6 -22z"/>
<path d="M2040 425 c0 -43 4 -75 10 -75 6 0 10 32 10 75 0 43 -4 75 -10 75 -6
0 -10 -32 -10 -75z"/>
<path d="M2110 482 c-17 -14 -23 -29 -23 -60 0 -51 16 -72 54 -72 30 0 70 41
48 49 -7 2 -16 -4 -21 -13 -12 -21 -44 -21 -52 0 -11 28 -6 62 11 79 16 16 18
16 34 -4 17 -21 39 -28 39 -13 0 15 -25 40 -46 46 -13 4 -30 0 -44 -12z"/>
<path d="M2235 475 c-48 -47 -23 -125 39 -125 19 0 39 7 46 15 18 21 6 29 -19
13 -24 -15 -54 -2 -59 26 -3 13 6 16 48 16 49 0 51 1 45 23 -8 26 -41 57 -62
57 -7 0 -25 -11 -38 -25z m63 -7 c20 -20 14 -28 -23 -28 -19 0 -35 4 -35 8 0
12 22 32 35 32 6 0 16 -5 23 -12z"/>
<path d="M2369 481 c-19 -16 -22 -23 -13 -38 6 -10 26 -23 45 -29 41 -14 45
-38 7 -42 -16 -2 -28 1 -28 7 0 6 -7 11 -15 11 -8 0 -15 -4 -15 -8 0 -35 92
-45 110 -12 16 30 -4 58 -45 66 -21 4 -35 12 -35 20 0 23 29 28 49 10 19 -18
35 -9 23 11 -14 23 -57 25 -83 4z"/>
<path d="M1810 419 c0 -55 3 -69 15 -69 11 0 15 12 15 50 0 39 4 53 20 62 29
18 25 26 -15 26 l-35 0 0 -69z"/>
</g>
</svg>
