<?xml version="1.0" standalone="no"?>
<!DOCTYPE svg PUBLIC "-//W3C//DTD SVG 20010904//EN"
 "http://www.w3.org/TR/2001/REC-SVG-20010904/DTD/svg10.dtd">
<svg version="1.0" xmlns="http://www.w3.org/2000/svg"
 width="225.000000pt" height="225.000000pt" viewBox="0 0 225.000000 225.000000"
 preserveAspectRatio="xMidYMid meet">

<g transform="translate(0.000000,225.000000) scale(0.100000,-0.100000)"
fill="#000000" stroke="none">
<path d="M708 1500 c-110 -20 -216 -100 -271 -205 -30 -57 -32 -66 -32 -170 0
-98 3 -116 27 -167 34 -74 112 -152 186 -186 51 -24 69 -27 167 -27 98 0 116
3 167 27 71 33 137 93 171 156 l26 49 -77 27 c-42 15 -78 23 -79 19 -33 -95
-159 -154 -268 -124 -92 25 -159 118 -158 220 2 138 92 231 223 231 87 0 156
-40 199 -118 9 -15 15 -15 81 7 69 22 71 24 65 49 -16 66 -114 158 -202 192
-62 23 -160 32 -225 20z"/>
<path d="M1135 1481 c3 -6 73 -175 155 -376 l149 -365 -108 -263 c-138 -332
-130 -316 -159 -324 -39 -9 -189 5 -282 27 -100 25 -262 100 -340 158 -30 23
-81 67 -112 99 -32 31 -61 53 -65 49 -4 -4 1 -14 11 -22 11 -8 16 -14 10 -14
-11 0 -64 48 -64 58 0 5 4 12 9 17 6 6 4 18 -5 30 -14 19 -15 17 -10 -27 2
-28 0 -48 -5 -48 -5 0 -3 -13 6 -30 18 -35 19 -40 3 -40 -6 0 -8 3 -5 6 9 9
-11 44 -25 44 -6 0 -5 -6 3 -17 11 -13 11 -17 1 -20 -6 -3 -10 -9 -7 -13 3 -5
0 -12 -6 -16 -7 -4 -10 -3 -7 2 3 5 -14 25 -36 44 l-41 35 35 -41 c19 -23 53
-63 74 -88 24 -28 45 -45 53 -42 8 3 12 2 8 -3 -8 -14 79 -86 170 -141 169
-102 327 -149 527 -157 126 -5 139 -4 181 16 25 12 56 36 70 54 13 18 58 115
99 217 42 102 169 411 282 686 113 276 206 505 206 508 0 3 -37 6 -82 6 l-83
0 -105 -270 c-58 -148 -107 -270 -110 -270 -3 0 -53 120 -111 268 l-106 267
-93 3 c-59 2 -89 -1 -85 -7z m-775 -1039 c0 -15 -2 -15 -10 -2 -13 20 -13 33
0 25 6 -3 10 -14 10 -23z m45 -12 c-3 -5 -12 -10 -18 -10 -7 0 -6 4 3 10 19
12 23 12 15 0z"/>
<path d="M90 685 c0 -5 5 -17 10 -25 5 -8 10 -10 10 -5 0 6 -5 17 -10 25 -5 8
-10 11 -10 5z"/>
<path d="M250 673 c0 -6 8 -17 18 -24 16 -13 16 -13 2 6 -8 11 -16 22 -17 24
-2 2 -3 0 -3 -6z"/>
<path d="M280 612 c0 -7 7 -20 15 -28 19 -20 20 -4 0 22 -9 12 -14 14 -15 6z"/>
<path d="M189 553 c-13 -16 -12 -17 4 -4 9 7 17 15 17 17 0 8 -8 3 -21 -13z"/>
<path d="M226 503 c-6 -14 -5 -15 5 -6 7 7 10 15 7 18 -3 3 -9 -2 -12 -12z"/>
<path d="M350 506 c0 -9 5 -16 10 -16 6 0 10 4 10 9 0 6 -4 13 -10 16 -5 3
-10 -1 -10 -9z"/>
<path d="M267 468 c-6 -22 -1 -38 12 -38 4 0 8 14 8 30 0 35 -12 40 -20 8z"/>
</g>
</svg>
