<?xml version="1.0" standalone="no"?>
<!DOCTYPE svg PUBLIC "-//W3C//DTD SVG 20010904//EN"
 "http://www.w3.org/TR/2001/REC-SVG-20010904/DTD/svg10.dtd">
<svg version="1.0" xmlns="http://www.w3.org/2000/svg"
 width="236.000000pt" height="214.000000pt" viewBox="0 0 236.000000 214.000000"
 preserveAspectRatio="xMidYMid meet">

<g transform="translate(0.000000,214.000000) scale(0.100000,-0.100000)"
fill="#000000" stroke="none">
<path d="M1160 1915 l0 -95 -210 0 -210 0 0 -95 0 -95 -100 0 -99 0 -3 -92 -3
-93 -47 -3 c-45 -3 -48 -5 -53 -36 -9 -45 10 -172 35 -239 88 -234 269 -336
580 -324 388 15 636 172 810 512 14 27 22 31 75 36 91 9 148 47 190 129 15 28
14 29 -28 49 -31 15 -63 21 -114 21 l-70 0 -18 45 c-18 50 -108 149 -128 143
-6 -3 -23 -24 -36 -48 -32 -57 -40 -168 -18 -223 16 -37 16 -38 -7 -47 -13 -5
-40 -12 -60 -15 l-36 -7 0 96 0 96 -105 0 -105 0 0 190 0 190 -120 0 -120 0 0
-95z m210 -10 l0 -75 -90 0 -90 0 0 75 0 75 90 0 90 0 0 -75z m-425 -187 c0
-43 -3 -78 -7 -78 -5 0 -42 0 -83 0 l-75 0 0 80 0 81 83 -3 82 -3 0 -77z m213
0 l3 -76 -68 -4 c-117 -5 -113 -8 -113 76 0 40 3 76 7 80 4 4 43 5 88 4 l80
-3 3 -77z m210 0 l3 -76 -48 -4 c-26 -1 -67 -2 -90 0 l-43 3 0 73 c0 40 3 76
7 80 4 4 43 5 88 4 l80 -3 3 -77z m456 -29 c19 -23 40 -62 47 -88 l12 -48 73
5 c71 4 134 -9 134 -28 0 -19 -57 -74 -95 -91 -22 -10 -63 -19 -93 -19 l-52 0
-24 -55 c-55 -123 -176 -271 -279 -340 -239 -159 -627 -207 -831 -103 -50 26
-106 67 -106 79 0 5 27 9 59 9 95 0 237 52 202 74 -5 4 -43 -5 -85 -19 -78
-26 -172 -33 -207 -15 -23 13 -71 104 -93 179 -9 30 -16 83 -16 118 l0 63 593
0 c371 0 606 4 629 10 20 6 46 18 58 28 l21 17 -20 45 c-11 25 -21 63 -21 86
0 51 28 134 45 134 7 0 29 -18 49 -41z m-1084 -164 l0 -75 -85 0 -85 0 0 75 0
75 85 0 85 0 0 -75z m210 0 l0 -75 -85 0 -85 0 0 75 0 75 85 0 85 0 0 -75z
m210 0 l0 -75 -90 0 -90 0 0 75 0 75 90 0 90 0 0 -75z m210 0 l0 -75 -90 0
-90 0 0 75 0 75 90 0 90 0 0 -75z m200 0 l0 -75 -85 0 -85 0 0 75 0 75 85 0
85 0 0 -75z"/>
<path d="M1220 1910 c0 -27 5 -50 10 -50 6 0 10 23 10 50 0 28 -4 50 -10 50
-5 0 -10 -22 -10 -50z"/>
<path d="M1270 1910 c0 -27 5 -50 10 -50 6 0 10 23 10 50 0 28 -4 50 -10 50
-5 0 -10 -22 -10 -50z"/>
<path d="M1320 1910 c0 -27 5 -50 10 -50 6 0 10 23 10 50 0 28 -4 50 -10 50
-5 0 -10 -22 -10 -50z"/>
<path d="M805 1758 c-9 -24 -2 -93 10 -93 14 0 19 85 6 98 -7 7 -12 5 -16 -5z"/>
<path d="M857 1763 c-11 -10 -8 -91 3 -98 6 -4 10 15 10 49 0 57 -1 61 -13 49z"/>
<path d="M900 1715 c0 -30 5 -55 10 -55 6 0 10 25 10 55 0 30 -4 55 -10 55 -5
0 -10 -25 -10 -55z"/>
<path d="M1010 1721 c0 -28 5 -53 10 -56 6 -4 10 15 10 49 0 31 -4 56 -10 56
-5 0 -10 -22 -10 -49z"/>
<path d="M1067 1763 c-11 -10 -8 -91 3 -98 6 -4 10 15 10 49 0 57 -1 61 -13
49z"/>
<path d="M1110 1715 c0 -30 5 -55 10 -55 6 0 10 25 10 55 0 30 -4 55 -10 55
-5 0 -10 -25 -10 -55z"/>
<path d="M1220 1715 c0 -30 5 -55 10 -55 6 0 10 25 10 55 0 30 -4 55 -10 55
-5 0 -10 -25 -10 -55z"/>
<path d="M1270 1715 c0 -30 5 -55 10 -55 6 0 10 25 10 55 0 30 -4 55 -10 55
-5 0 -10 -25 -10 -55z"/>
<path d="M1320 1715 c0 -30 5 -55 10 -55 6 0 10 25 10 55 0 30 -4 55 -10 55
-5 0 -10 -25 -10 -55z"/>
<path d="M967 1193 c-13 -12 -7 -41 10 -47 23 -9 39 9 25 27 -7 8 -9 17 -5 20
3 4 0 7 -9 7 -8 0 -18 -3 -21 -7z"/>
<path d="M600 1519 c0 -31 4 -48 10 -44 6 3 10 26 10 51 0 24 -4 44 -10 44 -5
0 -10 -23 -10 -51z"/>
<path d="M640 1526 c0 -25 5 -48 10 -51 6 -4 10 13 10 44 0 28 -4 51 -10 51
-5 0 -10 -20 -10 -44z"/>
<path d="M690 1526 c0 -25 5 -48 10 -51 6 -4 10 13 10 44 0 28 -4 51 -10 51
-5 0 -10 -20 -10 -44z"/>
<path d="M802 1523 c2 -27 8 -48 13 -48 6 0 11 21 13 48 3 38 0 47 -13 47 -13
0 -16 -9 -13 -47z"/>
<path d="M850 1526 c0 -25 5 -48 10 -51 6 -4 10 13 10 44 0 28 -4 51 -10 51
-5 0 -10 -20 -10 -44z"/>
<path d="M900 1526 c0 -25 5 -48 10 -51 6 -4 10 13 10 44 0 28 -4 51 -10 51
-5 0 -10 -20 -10 -44z"/>
<path d="M1010 1526 c0 -25 5 -48 10 -51 6 -4 10 13 10 44 0 28 -4 51 -10 51
-5 0 -10 -20 -10 -44z"/>
<path d="M1060 1526 c0 -25 5 -48 10 -51 6 -4 10 13 10 44 0 28 -4 51 -10 51
-5 0 -10 -20 -10 -44z"/>
<path d="M1110 1526 c0 -25 5 -48 10 -51 6 -4 10 13 10 44 0 28 -4 51 -10 51
-5 0 -10 -20 -10 -44z"/>
<path d="M1220 1520 c0 -27 5 -50 10 -50 6 0 10 23 10 50 0 28 -4 50 -10 50
-5 0 -10 -22 -10 -50z"/>
<path d="M1270 1519 c0 -31 4 -48 10 -44 6 3 10 26 10 51 0 24 -4 44 -10 44
-5 0 -10 -23 -10 -51z"/>
<path d="M1320 1519 c0 -31 4 -48 10 -44 6 3 10 26 10 51 0 24 -4 44 -10 44
-5 0 -10 -23 -10 -51z"/>
<path d="M1430 1520 c0 -27 5 -50 10 -50 6 0 10 23 10 50 0 28 -4 50 -10 50
-5 0 -10 -22 -10 -50z"/>
<path d="M1480 1519 c0 -31 4 -48 10 -44 6 3 10 26 10 51 0 24 -4 44 -10 44
-5 0 -10 -23 -10 -51z"/>
<path d="M1522 1523 c2 -27 8 -48 13 -48 6 0 11 21 13 48 3 38 0 47 -13 47
-13 0 -16 -9 -13 -47z"/>
<path d="M362 668 c-8 -8 -12 -45 -12 -100 l0 -89 -28 15 c-83 43 -171 27
-232 -41 -83 -95 -58 -238 52 -292 107 -51 237 5 268 117 5 20 10 114 10 208
0 168 -5 194 -35 194 -6 0 -16 -5 -23 -12z m-72 -233 c58 -30 77 -112 40 -173
-23 -37 -54 -52 -112 -52 -32 0 -47 7 -74 34 -30 30 -34 41 -34 84 0 53 24 96
64 112 33 14 84 11 116 -5z"/>
<path d="M1252 668 c-9 -9 -12 -76 -12 -259 0 -213 2 -248 16 -260 11 -9 20
-10 32 -2 13 7 18 28 20 82 3 66 5 73 28 83 23 11 28 8 72 -43 106 -122 117
-132 140 -125 36 12 26 37 -53 126 -41 47 -75 88 -75 92 0 4 34 28 75 55 74
48 89 69 61 92 -18 15 -28 10 -148 -71 -48 -32 -90 -58 -92 -58 -3 0 -7 66 -8
148 -3 139 -4 147 -23 150 -11 1 -26 -3 -33 -10z"/>
<path d="M585 505 c-50 -17 -112 -85 -121 -132 -10 -51 1 -110 28 -149 28 -41
108 -84 157 -84 71 1 156 59 180 123 37 97 -26 219 -127 247 -48 13 -68 12
-117 -5z m125 -71 c37 -22 60 -64 60 -108 0 -69 -53 -116 -131 -116 -33 0 -47
6 -75 34 -33 33 -39 52 -34 105 7 79 108 127 180 85z"/>
<path d="M1010 509 c-19 -6 -52 -27 -72 -47 -128 -123 -29 -337 148 -319 31 3
66 14 84 27 55 39 27 90 -30 56 -41 -23 -111 -21 -145 6 -123 97 8 280 142
198 40 -24 65 -17 61 18 -6 50 -111 84 -188 61z"/>
<path d="M1735 505 c-68 -24 -125 -107 -125 -183 0 -31 27 -92 53 -120 64 -69
172 -81 242 -28 38 29 40 42 12 60 -12 8 -24 6 -46 -7 -45 -26 -113 -22 -150
9 -57 48 -45 54 100 54 72 0 139 5 150 10 23 13 25 56 5 103 -25 62 -113 118
-181 117 -11 -1 -38 -7 -60 -15z m125 -70 c27 -14 60 -51 60 -67 0 -5 -52 -8
-115 -8 -118 0 -125 3 -105 40 24 46 105 63 160 35z"/>
<path d="M2042 512 c-9 -7 -12 -51 -10 -188 l3 -179 25 0 c25 0 25 1 30 110 4
83 9 118 23 138 27 41 70 59 135 55 48 -3 57 0 60 15 6 28 -15 45 -61 52 -38
6 -73 -1 -139 -30 -13 -5 -18 -3 -18 8 0 8 -7 18 -16 21 -19 7 -16 7 -32 -2z"/>
</g>
</svg>
