<?xml version="1.0" standalone="no"?>
<!DOCTYPE svg PUBLIC "-//W3C//DTD SVG 20010904//EN"
 "http://www.w3.org/TR/2001/REC-SVG-20010904/DTD/svg10.dtd">
<svg version="1.0" xmlns="http://www.w3.org/2000/svg"
 width="224.000000pt" height="224.000000pt" viewBox="0 0 224.000000 224.000000"
 preserveAspectRatio="xMidYMid meet">

<g transform="translate(0.000000,224.000000) scale(0.100000,-0.100000)"
fill="#000000" stroke="none">
<path d="M405 2230 c-79 -16 -153 -41 -165 -55 -7 -8 -18 -15 -25 -15 -15 0
-135 -120 -135 -135 0 -7 -7 -18 -15 -25 -15 -13 -40 -90 -56 -174 -12 -67 10
-189 48 -265 51 -101 187 -210 295 -236 l27 -7 3 -381 3 -382 28 -55 c58 -114
143 -180 269 -207 63 -13 78 -20 78 -35 0 -37 46 -114 97 -164 87 -84 205
-108 325 -66 99 35 158 95 193 197 39 113 13 233 -69 318 -73 76 -130 99 -236
99 -74 0 -93 -3 -137 -27 -87 -45 -173 -154 -173 -220 0 -23 -4 -25 -43 -25
-24 0 -52 7 -63 15 -10 8 -26 15 -34 15 -19 1 -78 54 -112 100 -14 19 -30 59
-37 88 -11 54 -16 532 -5 532 3 0 24 -13 47 -28 63 -42 88 -50 171 -58 72 -6
76 -8 76 -31 0 -33 43 -111 86 -155 19 -20 58 -49 87 -63 44 -24 63 -27 137
-27 106 0 163 23 236 99 38 39 55 67 69 113 l18 60 104 0 103 0 0 -25 c0 -36
45 -118 88 -159 20 -20 59 -48 86 -62 42 -23 62 -26 135 -26 107 0 164 23 237
99 84 87 108 205 66 325 -35 99 -95 158 -197 193 -113 39 -233 13 -318 -69
-52 -50 -97 -127 -97 -166 0 -19 -6 -20 -104 -20 l-104 0 -17 53 c-32 102 -92
163 -193 199 -118 43 -238 18 -325 -66 -52 -50 -97 -127 -97 -166 0 -18 -7
-20 -63 -20 -99 0 -189 61 -218 147 -14 43 -3 53 57 53 77 0 194 61 265 137
100 107 138 231 119 387 -15 124 -102 254 -215 324 -81 50 -220 79 -300 62z
m202 -107 c91 -36 178 -124 211 -212 20 -52 23 -76 20 -154 -4 -110 -32 -177
-105 -250 -73 -73 -140 -101 -250 -105 -126 -5 -192 19 -278 103 -154 151
-156 383 -4 534 42 43 64 57 149 94 59 27 178 22 257 -10z m570 -837 c86 -44
133 -119 133 -216 0 -90 -41 -155 -130 -209 -48 -29 -155 -29 -210 -1 -88 45
-130 115 -130 218 0 58 4 75 28 113 55 84 110 118 199 118 46 1 73 -5 110 -23z
m840 0 c86 -44 133 -119 133 -216 0 -90 -41 -155 -130 -209 -48 -29 -155 -29
-210 -1 -88 45 -130 115 -130 218 0 58 4 75 28 113 55 84 110 118 199 118 46
1 73 -5 110 -23z m-837 -747 c89 -54 130 -119 130 -209 0 -97 -47 -172 -133
-216 -91 -45 -202 -28 -269 44 -53 55 -68 93 -68 165 0 100 42 171 128 217 53
28 165 27 212 -1z"/>
<path d="M333 2000 c-44 -18 -53 -57 -53 -225 0 -120 4 -163 15 -185 30 -58
89 -66 156 -20 24 16 49 30 55 30 6 0 19 9 29 20 10 11 22 20 26 20 4 0 34 18
67 40 66 43 80 71 62 124 -8 23 -28 42 -76 71 -36 22 -94 59 -130 82 -69 45
-115 58 -151 43z m145 -136 c48 -31 97 -63 110 -70 12 -8 22 -18 22 -22 0 -7
-168 -116 -217 -141 l-23 -12 0 151 c0 94 4 150 10 150 6 0 50 -25 98 -56z"/>
<path d="M1090 1120 c-33 -33 -63 -60 -66 -60 -3 0 -15 9 -27 20 -30 29 -71
23 -74 -10 -3 -27 13 -49 66 -93 31 -26 35 -27 57 -12 34 22 164 154 164 166
0 22 -22 49 -40 49 -11 0 -47 -27 -80 -60z"/>
<path d="M1930 1120 c-33 -33 -63 -60 -66 -60 -3 0 -15 9 -27 20 -30 29 -71
23 -74 -10 -3 -27 13 -49 66 -93 31 -26 35 -27 57 -12 34 22 164 154 164 166
0 22 -22 49 -40 49 -11 0 -47 -27 -80 -60z"/>
</g>
</svg>
