<?xml version="1.0" standalone="yes"?>
<svg xmlns="http://www.w3.org/2000/svg" width="200" height="200">
<path style="fill:#fefffe; stroke:none;" d="M0 0L0 200L200 200L200 0L0 0z"/>
<path style="fill:#66b1b1; stroke:none;" d="M123 46L124 47L123 46z"/>
<path style="fill:#0b8282; stroke:none;" d="M137 91L138 85L145 91L139 80L136 89C129.778 82.7654 134.16 77.2804 132.976 70C131.722 62.2848 125.355 55.3919 123 48C135.426 50.241 148.466 56.3831 155.779 67C159.333 72.1595 160.587 79.0498 164.638 83.7755C168.437 88.2076 175.444 90.127 180 94L170 96L183 106L173 97L182 95C178.328 88.8762 171.167 87.9205 166.966 82.7253C163.262 78.1449 162.011 71.9258 158.867 67C152.896 57.6439 144.902 53.7578 135 50.3164C131.865 49.2268 127.845 45.7148 124.319 46.9275C120.205 48.3421 123.547 53.7963 124.81 56C127.288 60.3206 130.508 66.0459 131.335 71C132.618 78.6825 128.115 86.6169 137 91z"/>
<path style="fill:#66b1b1; stroke:none;" d="M126.667 46.3333L127.333 46.6667L126.667 46.3333M129 47L130 48L129 47M121 48L121 51L122 51L121 48M123 48L123 49L127 49L123 48M131 48L132 49L131 48z"/>
<path style="fill:#f8cda3; stroke:none;" d="M123 49L124 50L123 49M127 49L128 50L127 49z"/>
<path style="fill:#66b1b1; stroke:none;" d="M128 49L129 50L128 49M132 49L133 50L132 49z"/>
<path style="fill:#f8cda3; stroke:none;" d="M133 49L134 50L133 49z"/>
<path style="fill:#66b1b1; stroke:none;" d="M123 50L124 51L123 50z"/>
<path style="fill:#f8cda3; stroke:none;" d="M129 50L130 51L129 50z"/>
<path style="fill:#66b1b1; stroke:none;" d="M130 50L131 51L130 50M134 50L134 51L138 51L134 50z"/>
<path style="fill:#f8cda3; stroke:none;" d="M138 50L139 51L138 50M121 51L122 52L121 51z"/>
<path style="fill:#66b1b1; stroke:none;" d="M131 51L132 52L131 51M140.667 51.3333L141.333 51.6667L140.667 51.3333M122 52L123 53L122 52M124 52L125 53L124 52z"/>
<path style="fill:#f8cda3; stroke:none;" d="M132 52L133 53L132 52z"/>
<path style="fill:#66b1b1; stroke:none;" d="M133 52L133 53L138 53L133 52M143 52L144 53L143 52M125 53L126 54L125 53M139.667 53.3333L140.333 53.6667L139.667 53.3333M144 53L145 54L144 53z"/>
<path style="fill:#f8cda3; stroke:none;" d="M145 53L146 54L145 53M123 54L124 55L123 54M141 54L142 55L141 54z"/>
<path style="fill:#66b1b1; stroke:none;" d="M142 54L143 55L142 54M146 54L147 55L146 54M124 55L125 56L124 55M126 55L127 56L126 55z"/>
<path style="fill:#f8cda3; stroke:none;" d="M143 55L144 56L143 55z"/>
<path style="fill:#66b1b1; stroke:none;" d="M147 55L148 56L147 55z"/>
<path style="fill:#f8cda3; stroke:none;" d="M148 55L149 56L148 55z"/>
<path style="fill:#66b1b1; stroke:none;" d="M125 56L126 57L125 56M127 56L128 57L127 56z"/>
<path style="fill:#f8cda3; stroke:none;" d="M134.667 56.3333L135.333 56.6667L134.667 56.3333z"/>
<path style="fill:#66b1b1; stroke:none;" d="M145 56L146 57L145 56M149 56L150 57L149 56M134 57L134 58L137 58L137 57L134 57z"/>
<path style="fill:#0b8282; stroke:none;" d="M135 57L136 58L135 57z"/>
<path style="fill:#f8cda3; stroke:none;" d="M146 57L147 58L146 57z"/>
<path style="fill:#66b1b1; stroke:none;" d="M150 57L151 58L150 57M126 58L127 59L126 58M128.333 58.6667L128.667 59.3333L128.333 58.6667z"/>
<path style="fill:#0b8282; stroke:none;" d="M136.333 58.6667L136.667 59.3333L136.333 58.6667z"/>
<path style="fill:#f8cda3; stroke:none;" d="M137 58L138 59L137 58z"/>
<path style="fill:#66b1b1; stroke:none;" d="M148 58L149 59L148 58M151 58L152 59L151 58z"/>
<path style="fill:#f8cda3; stroke:none;" d="M135 59L136 60L135 59z"/>
<path style="fill:#66b1b1; stroke:none;" d="M137 59L138 60L137 59M149 59L150 60L149 59M152 59L153 60L152 59z"/>
<path style="fill:#f8cda3; stroke:none;" d="M129 60L130 61L129 60z"/>
<path style="fill:#66b1b1; stroke:none;" d="M136 60L137 61L136 60M150 60L151 61L150 60M153 60L154 61L153 60M127 61L128 62L127 61M129.333 61.6667L129.667 62.3333L129.333 61.6667M151 61L152 62L151 61M154 61L155 62L154 61z"/>
<path style="fill:#f8cda3; stroke:none;" d="M127 62L128 63L127 62z"/>
<path style="fill:#66b1b1; stroke:none;" d="M152 62L153 63L152 62M155 62L156 63L155 62M128.333 63.6667L128.667 64.3333L128.333 63.6667z"/>
<path style="fill:#f8cda3; stroke:none;" d="M130 63L131 64L130 63z"/>
<path style="fill:#66b1b1; stroke:none;" d="M153 63L154 64L153 63M156 63L157 64L156 63M130 64L131 65L130 64z"/>
<path style="fill:#f8cda3; stroke:none;" d="M157 64L158 65L157 64M154 65L155 66L154 65z"/>
<path style="fill:#66b1b1; stroke:none;" d="M129 66L130 67L129 66M131 66L132 67L131 66M155 66L156 67L155 66M158 66L159 67L158 66z"/>
<path style="fill:#f8cda3; stroke:none;" d="M132 67L133 68L132 67z"/>
<path style="fill:#66b1b1; stroke:none;" d="M156 67L157 68L156 67z"/>
<path style="fill:#f8cda3; stroke:none;" d="M159 67L160 68L159 67z"/>
<path style="fill:#66b1b1; stroke:none;" d="M130 68L131 69L130 68z"/>
<path style="fill:#f8cda3; stroke:none;" d="M133 68L134 69L133 68z"/>
<path style="fill:#66b1b1; stroke:none;" d="M131 69L132 70L131 69M133 69L134 70L133 69M157 69L158 70L157 69M160 69L161 70L160 69z"/>
<path style="fill:#f8cda3; stroke:none;" d="M131 71L132 72L131 71z"/>
<path style="fill:#66b1b1; stroke:none;" d="M133.333 71.6667L133.667 72.3333L133.333 71.6667M158 71L159 72L158 71z"/>
<path style="fill:#f8cda3; stroke:none;" d="M161 71L162 72L161 71z"/>
<path style="fill:#66b1b1; stroke:none;" d="M131.333 72.6667L131.667 73.3333L131.333 72.6667z"/>
<path style="fill:#f8cda3; stroke:none;" d="M158 72L159 73L158 72z"/>
<path style="fill:#66b1b1; stroke:none;" d="M161 72L162 73L161 72z"/>
<path style="fill:#f8cda3; stroke:none;" d="M133 73L134 74L133 73z"/>
<path style="fill:#66b1b1; stroke:none;" d="M159.333 73.6667L159.667 74.3333L159.333 73.6667M132 74L132 77L133 77L132 74M162 74L163 75L162 74z"/>
<path style="fill:#f8cda3; stroke:none;" d="M130 75L131 76L130 75z"/>
<path style="fill:#66b1b1; stroke:none;" d="M160.333 75.6667L160.667 76.3333L160.333 75.6667M130 76L130 84L131 84L130 76M163 76L164 77L163 76z"/>
<path style="fill:#f8cda3; stroke:none;" d="M132 77L132 82L133 82L132 77z"/>
<path style="fill:#66b1b1; stroke:none;" d="M161 78L162 79L161 78M164 78L165 79L164 78z"/>
<path style="fill:#f8cda3; stroke:none;" d="M139 79L140 80L139 79z"/>
<path style="fill:#66b1b1; stroke:none;" d="M139 80L140 81L139 80M162 80L163 81L162 80M165 80L166 81L165 80M137 81L138 82L137 81z"/>
<path style="fill:#f8cda3; stroke:none;" d="M140 81L141 82L140 81z"/>
<path style="fill:#66b1b1; stroke:none;" d="M132 82L132 85L133 85L132 82M140 82L141 83L140 82M163 82L164 83L163 82M166 82L167 83L166 82M136 83L136 86L137 86L136 83M141 84L142 85L141 84M164 84L165 85L164 84M167.667 84.3333L168.333 84.6667L167.667 84.3333z"/>
<path style="fill:#f8cda3; stroke:none;" d="M133 85L134 86L133 85z"/>
<path style="fill:#66b1b1; stroke:none;" d="M138 85L138 89L139 89L138 85z"/>
<path style="fill:#f8cda3; stroke:none;" d="M139 85L140 86L139 85z"/>
<path style="fill:#66b1b1; stroke:none;" d="M165 85L166 86L165 85M170 85L171 86L170 85M131 86L132 87L131 86M133 86L134 87L133 86M140 86L141 87L140 86M142 86L143 87L142 86M166.667 86.3333L167.333 86.6667L166.667 86.3333M172 86L173 87L172 86M169.667 87.3333L170.333 87.6667L169.667 87.3333M174 87L175 88L174 87M132 88L133 89L132 88M134.667 88.3333L135.333 88.6667L134.667 88.3333M141 88L142 89L141 88M143 88L144 89L143 88M172 88L173 89L172 88M175 88L176 89L175 88M133 89L134 90L133 89z"/>
<path style="fill:#f8cda3; stroke:none;" d="M138 89L139 90L138 89z"/>
<path style="fill:#66b1b1; stroke:none;" d="M142 89L143 90L142 89M144 89L145 90L144 89z"/>
<path style="fill:#f8cda3; stroke:none;" d="M173 89L174 90L173 89z"/>
<path style="fill:#66b1b1; stroke:none;" d="M174 89L175 90L174 89M177 89L178 90L177 89M134 90L135 91L134 90M137 90L138 91L137 90M143 90L144 91L143 90M175 90L176 91L175 90M178 90L179 91L178 90M144 91L147 94L144 91z"/>
<path style="fill:#f8cda3; stroke:none;" d="M176 91L177 92L176 91z"/>
<path style="fill:#66b1b1; stroke:none;" d="M177 91L178 92L177 91M179 91L180 92L179 91M178 92L179 93L178 92z"/>
<path style="fill:#f8cda3; stroke:none;" d="M147.333 93.6667L147.667 94.3333L147.333 93.6667z"/>
<path style="fill:#66b1b1; stroke:none;" d="M179 93L180 94L179 93M181 93L182 94L181 93z"/>
<path style="fill:#f8cda3; stroke:none;" d="M173 94L174 95L173 94z"/>
<path style="fill:#66b1b1; stroke:none;" d="M174 94L174 95L177 95L174 94M182 94L179 95L179 96L183 95L182 94z"/>
<path style="fill:#f8cda3; stroke:none;" d="M148 95L149 96L148 95M170 95L171 96L170 95z"/>
<path style="fill:#66b1b1; stroke:none;" d="M171 95L172 96L171 95z"/>
<path style="fill:#f8cda3; stroke:none;" d="M182 95L183 96L182 95z"/>
<path style="fill:#66b1b1; stroke:none;" d="M174 96L174 97L177 97L174 96z"/>
<path style="fill:#f8cda3; stroke:none;" d="M177 96L178 97L177 96z"/>
<path style="fill:#66b1b1; stroke:none;" d="M170 97L171 98L170 97M173 97L174 98L173 97M171 98L172 99L171 98M174 98L175 99L174 98z"/>
<path style="fill:#f8cda3; stroke:none;" d="M19.6667 99.3333L20.3333 99.6667L19.6667 99.3333M46 99L46 100L49 100L46 99z"/>
<path style="fill:#66b1b1; stroke:none;" d="M175 99L176 100L175 99z"/>
<path style="fill:#f8cda3; stroke:none;" d="M176 99L177 100L176 99z"/>
<path style="fill:#66b1b1; stroke:none;" d="M16.6667 100.333L17.3333 100.667L16.6667 100.333z"/>
<path style="fill:#0b8282; stroke:none;" d="M14 126L19 126L19 105C23.5854 109.541 26.6423 127.145 34.8989 125.623C41.7435 124.362 43.7212 109.738 48 105L48 126L53 126C53 120.459 55.5949 105.808 51.3966 101.743C43.1909 93.799 35.9423 117.266 34 122C30.8462 116.597 28.2357 104.31 22.7755 101.194C10.9438 94.4415 14 120.743 14 126z"/>
<path style="fill:#66b1b1; stroke:none;" d="M22 100L23 101L22 100z"/>
<path style="fill:#f8cda3; stroke:none;" d="M23 100L24 101L23 100z"/>
<path style="fill:#66b1b1; stroke:none;" d="M44 100L45 101L44 100M50 100L51 101L50 100z"/>
<path style="fill:#f8cda3; stroke:none;" d="M51 100L52 101L51 100M94 100L94 101L113 101L94 100z"/>
<path style="fill:#eb7c16; stroke:none;" d="M90 123L90 126C95.9962 126 105.49 127.772 110.852 124.682C114.22 122.741 115.306 116.591 112.397 113.742C109.282 110.693 94.8541 114.176 95.9213 107.104C96.8258 101.11 111.419 105.966 115 101L114 100C108.436 101.325 94.4913 98.3973 91.0278 103.434C82.9653 115.157 102.671 113.23 106.663 116.027C113.26 120.651 100.608 122.985 98 122.999L90 123z"/>
<path style="fill:#f8cda3; stroke:none;" d="M114 100L115 101L114 100M123 100L123 101L146 104C140.611 97.8934 130.492 100 123 100M150 100L150 101L155 101L155 120L156 120L156 100L150 100M172 100L173 101L172 100z"/>
<path style="fill:#66b1b1; stroke:none;" d="M173 100L174 101L173 100M177 100L178 101L177 100z"/>
<path style="fill:#f8cda3; stroke:none;" d="M24 101L25 102L24 101z"/>
<path style="fill:#66b1b1; stroke:none;" d="M43 101L44 102L43 101M52 101L53 102L52 101z"/>
<path style="fill:#f8cda3; stroke:none;" d="M92 101L93 102L92 101M121 101L122 102L121 101z"/>
<path style="fill:#eb7c16; stroke:none;" d="M148 130L143 126C154.367 110.198 139.508 94.1042 122.133 101.742C116.217 104.343 116.24 119.446 120.434 123.486C124.059 126.978 129.524 125.556 134 126.133C139.016 126.781 142.754 129.844 148 130M150 101C150 106.753 147.849 118.005 151.603 122.721C156.098 128.368 168.631 126 175 126L175 123C170.106 123 161.42 124.649 157.434 121.258C152.899 117.4 155 106.355 155 101L150 101z"/>
<path style="fill:#66b1b1; stroke:none;" d="M174 101L175 102L174 101z"/>
<path style="fill:#f8cda3; stroke:none;" d="M179 101L180 102L179 101z"/>
<path style="fill:#66b1b1; stroke:none;" d="M14 102L15 103L14 102M42 102L43 103L42 102z"/>
<path style="fill:#f8cda3; stroke:none;" d="M53 102L54 103L53 102M90 102L91 103L90 102M114.333 102.667L114.667 103.333L114.333 102.667M119 102L120 103L119 102M175 102L176 103L175 102z"/>
<path style="fill:#66b1b1; stroke:none;" d="M176 102L177 103L176 102M180 102L181 103L180 102M25 103L26 104L25 103M53 103L54 104L53 103z"/>
<path style="fill:#f8cda3; stroke:none;" d="M177 103L178 104L177 103z"/>
<path style="fill:#66b1b1; stroke:none;" d="M178 103L179 104L178 103M181 103L182 104L181 103M41 104L42 105L41 104z"/>
<path style="fill:#f8cda3; stroke:none;" d="M53 104L53 126L54 126L53 104M89 104L89 111L90 111L89 104M96 104L97 105L96 104M118.333 104.667L118.667 105.333L118.333 104.667M126 104L127 105L126 104z"/>
<path style="fill:#fefffe; stroke:none;" d="M132 122L129 118L140 121C140.802 118.286 141.006 115.843 140.998 113C140.981 106.279 131.81 98.596 126.028 105.742C121.363 111.508 124.94 121.768 132 122z"/>
<path style="fill:#f8cda3; stroke:none;" d="M138.667 104.333L139.333 104.667L138.667 104.333M179 104L180 105L179 104z"/>
<path style="fill:#66b1b1; stroke:none;" d="M180 104L181 105L180 104M182 104L183 105L182 104M19 105L19 126L20 126L21 105L19 105z"/>
<path style="fill:#f8cda3; stroke:none;" d="M26 105L27 106L26 105z"/>
<path style="fill:#66b1b1; stroke:none;" d="M46 105L46 107L48 105L46 105z"/>
<path style="fill:#f8cda3; stroke:none;" d="M95 105L95 110L96 110L95 105M124 105L124 121L125 121L124 105M140 105L141 106L140 105M146 105L146 122L147 122L146 105z"/>
<path style="fill:#66b1b1; stroke:none;" d="M181 105L182 106L181 105M183 105L185 108L183 105M26 106L27 107L26 106z"/>
<path style="fill:#f8cda3; stroke:none;" d="M40 106L41 107L40 106M47.3333 106.667L47.6667 107.333L47.3333 106.667M182 106L183 107L182 106M184 106L185 107L184 106z"/>
<path style="fill:#66b1b1; stroke:none;" d="M21 107L22 108L21 107M40 107L41 108L40 107M27 108L28 109L27 108z"/>
<path style="fill:#f8cda3; stroke:none;" d="M39 108L40 109L39 108z"/>
<path style="fill:#66b1b1; stroke:none;" d="M45 108L46 109L45 108M47 108L47 126L48 126L47 108M58 108L58 109L63 109L63 121L64 121L64 108L58 108M79 108L79 122L65 122L65 123L80 123L80 109L85 109L79 108M22 109L23 110L22 109M39 109L40 110L39 109z"/>
<path style="fill:#f8cda3; stroke:none;" d="M45 109L46 110L45 109z"/>
<path style="fill:#0b8282; stroke:none;" d="M58 109C58.6047 112.799 57.2255 117.317 58.7431 120.891C61.6417 127.719 74.0782 126 80 126C76.2091 133.224 66.019 131 59 131L59 134C65.6281 134 78.4848 136.381 83.2577 130.581C87.1239 125.883 85 114.762 85 109L80 109L80 123C67.6253 123 63 122.397 63 109L58 109z"/>
<path style="fill:#f8cda3; stroke:none;" d="M85 109L85 128L86 128L85 109M22 110L23 111L22 110z"/>
<path style="fill:#66b1b1; stroke:none;" d="M28.3333 110.667L28.6667 111.333L28.3333 110.667z"/>
<path style="fill:#f8cda3; stroke:none;" d="M38 110L39 111L38 110z"/>
<path style="fill:#66b1b1; stroke:none;" d="M44 110L45 111L44 110M58 110L58 114L59 114L58 110M23.3333 111.667L23.6667 112.333L23.3333 111.667M38 111L39 112L38 111z"/>
<path style="fill:#f8cda3; stroke:none;" d="M44 111L45 112L44 111M98 111L98 112L109 112L98 111z"/>
<path style="fill:#66b1b1; stroke:none;" d="M29.3333 112.667L29.6667 113.333L29.3333 112.667M43 112L44 113L43 112z"/>
<path style="fill:#f8cda3; stroke:none;" d="M111 112L112 113L111 112z"/>
<path style="fill:#66b1b1; stroke:none;" d="M37 113L38 114L37 113z"/>
<path style="fill:#f8cda3; stroke:none;" d="M43 113L44 114L43 113M92 113L93 114L92 113z"/>
<path style="fill:#66b1b1; stroke:none;" d="M24 114L25 115L24 114z"/>
<path style="fill:#f8cda3; stroke:none;" d="M30 114L31 115L30 114z"/>
<path style="fill:#66b1b1; stroke:none;" d="M42.3333 114.667L42.6667 115.333L42.3333 114.667z"/>
<path style="fill:#f8cda3; stroke:none;" d="M94 114L94 115L97 115L94 114z"/>
<path style="fill:#66b1b1; stroke:none;" d="M30 115L31 116L30 115M36.3333 115.667L36.6667 116.333L36.3333 115.667z"/>
<path style="fill:#f8cda3; stroke:none;" d="M107 115L108 116L107 115M114 115L114 122L115 122L114 115z"/>
<path style="fill:#66b1b1; stroke:none;" d="M25 116L26 117L25 116z"/>
<path style="fill:#f8cda3; stroke:none;" d="M108 116L109 117L108 116z"/>
<path style="fill:#66b1b1; stroke:none;" d="M31 117L32 118L31 117z"/>
<path style="fill:#f8cda3; stroke:none;" d="M35 117L36 118L35 117z"/>
<path style="fill:#66b1b1; stroke:none;" d="M41 117L42 118L41 117M26 118L27 119L26 118M35 118L36 119L35 118z"/>
<path style="fill:#f8cda3; stroke:none;" d="M129 118L129 119L136 119L129 118M178 119L178 120L183 122L183 125L181 123L178 124L178 121L177 121C178.452 126.006 182.057 127.961 186 124C182.976 124 184.371 122.327 186 121C183.452 118.323 181.521 118.043 178 119z"/>
<path style="fill:#66b1b1; stroke:none;" d="M32 119L33 120L32 119z"/>
<path style="fill:#f8cda3; stroke:none;" d="M34 119L35 120L34 119z"/>
<path style="fill:#66b1b1; stroke:none;" d="M40 119L41 120L40 119z"/>
<path style="fill:#eb7c16; stroke:none;" d="M179 119L180 120L179 119M184 119L185 120L184 119z"/>
<path style="fill:#66b1b1; stroke:none;" d="M27 120L28 121L27 120M34 120L35 121L34 120z"/>
<path style="fill:#f8cda3; stroke:none;" d="M40 120L41 121L40 120M108 120L109 121L108 120M131 120L132 121L131 120M138 120L139 121L138 120M140 120L141 121L140 120z"/>
<path style="fill:#eb7c16; stroke:none;" d="M178.333 120.667L178.667 121.333L178.333 120.667z"/>
<path style="fill:#f8cda3; stroke:none;" d="M27 121L28 122L27 121z"/>
<path style="fill:#66b1b1; stroke:none;" d="M33 121L34 122L33 121M39 121L40 122L39 121M58 121L59 122L58 121z"/>
<path style="fill:#f8cda3; stroke:none;" d="M64 121L65 122L64 121M118.333 121.667L118.667 122.333L118.333 121.667M125 121L126 122L125 121M132 121L127 122L127 123L132 121M139 121L140 122L139 121M156 121L157 122L156 121z"/>
<path style="fill:#fefffe; stroke:none;" d="M179 121L179 124L180 124L179 121z"/>
<path style="fill:#eb7c16; stroke:none;" d="M180 121L183 123L183 122L180 121z"/>
<path style="fill:#fefffe; stroke:none;" d="M184 121L184 124L185 124L184 121z"/>
<path style="fill:#eb7c16; stroke:none;" d="M185 121L185 124L186 124L185 121z"/>
<path style="fill:#66b1b1; stroke:none;" d="M28.3333 122.667L28.6667 123.333L28.3333 122.667z"/>
<path style="fill:#f8cda3; stroke:none;" d="M39 122L40 123L39 122M58 122L59 123L58 122M89 122L89 126L90 126L90 123L106 123L89 122M150 122L151 123L150 122M158 122L158 123L175 123L158 122z"/>
<path style="fill:#66b1b1; stroke:none;" d="M38 123L39 124L38 123M59 123L60 124L59 123z"/>
<path style="fill:#f8cda3; stroke:none;" d="M113 123L114 124L113 123M119 123L120 124L119 123M145 123L146 124L145 123M151 123L152 124L151 123z"/>
<path style="fill:#eb7c16; stroke:none;" d="M178 123L179 124L178 123z"/>
<path style="fill:#fefffe; stroke:none;" d="M181 123L181 125L183 125L181 123z"/>
<path style="fill:#66b1b1; stroke:none;" d="M29 124L30 125L29 124z"/>
<path style="fill:#f8cda3; stroke:none;" d="M38 124L39 125L38 124M60 124L61 125L60 124z"/>
<path style="fill:#66b1b1; stroke:none;" d="M61 124L62 125L61 124z"/>
<path style="fill:#f8cda3; stroke:none;" d="M112 124L113 125L112 124M120 124L121 125L120 124M144 124L145 125L144 124M152 124L153 125L152 124z"/>
<path style="fill:#eb7c16; stroke:none;" d="M184 124L185 125L184 124z"/>
<path style="fill:#66b1b1; stroke:none;" d="M30 125L31 126L30 125z"/>
<path style="fill:#f8cda3; stroke:none;" d="M37 125L38 126L37 125M62 125L63 126L62 125z"/>
<path style="fill:#66b1b1; stroke:none;" d="M63 125L63 126L67 126L63 125z"/>
<path style="fill:#f8cda3; stroke:none;" d="M109.667 125.333L110.333 125.667L109.667 125.333M122.667 125.333L123.333 125.667L122.667 125.333M143 125L144 126L143 125M154.667 125.333L155.333 125.667L154.667 125.333z"/>
<path style="fill:#eb7c16; stroke:none;" d="M180 125L181 126L180 125M183 125L184 126L183 125z"/>
<path style="fill:#f8cda3; stroke:none;" d="M14 126L14 127L19 127L14 126M31 126L32 127L31 126z"/>
<path style="fill:#66b1b1; stroke:none;" d="M32 126L32 127L35 127L32 126z"/>
<path style="fill:#f8cda3; stroke:none;" d="M35 126L36 127L35 126M48 126L48 127L53 127L48 126z"/>
<path style="fill:#66b1b1; stroke:none;" d="M79 126L79 129L80 129L79 126z"/>
<path style="fill:#f8cda3; stroke:none;" d="M90 126L90 127L107 127L90 126M125 126L125 127L135 127L125 126M137 126L138 127L137 126M144 126L145 127L144 126M159 126L159 127L175 127L159 126M140 128L141 129L140 128z"/>
<path style="fill:#66b1b1; stroke:none;" d="M78 129L79 130L78 129M84 129L85 130L84 129z"/>
<path style="fill:#f8cda3; stroke:none;" d="M141 129L142 130L141 129z"/>
<path style="fill:#66b1b1; stroke:none;" d="M58 130L58 134L59 134L59 131L77 131L58 130z"/>
<path style="fill:#f8cda3; stroke:none;" d="M84 130L85 131L84 130M142 130L142 131L148 131L142 130z"/>
<path style="fill:#66b1b1; stroke:none;" d="M83 131L84 132L83 131M81 132L82 133L81 132z"/>
<path style="fill:#f8cda3; stroke:none;" d="M82 132L83 133L82 132z"/>
<path style="fill:#66b1b1; stroke:none;" d="M78.6667 133.333L79.3333 133.667L78.6667 133.333z"/>
</svg>
