<?xml version="1.0" standalone="no"?>
<!DOCTYPE svg PUBLIC "-//W3C//DTD SVG 20010904//EN"
 "http://www.w3.org/TR/2001/REC-SVG-20010904/DTD/svg10.dtd">
<svg version="1.0" xmlns="http://www.w3.org/2000/svg"
 width="225.000000pt" height="225.000000pt" viewBox="0 0 225.000000 225.000000"
 preserveAspectRatio="xMidYMid meet">

<g transform="translate(0.000000,225.000000) scale(0.100000,-0.100000)"
fill="#000000" stroke="none">
<path d="M109 1395 c-15 -8 -29 -21 -33 -30 -3 -8 -6 -129 -6 -268 -1 -221 0
-252 14 -255 14 -3 16 23 16 232 0 129 4 246 10 260 14 38 66 49 213 45 105
-3 129 -7 144 -22 16 -16 18 -43 21 -267 3 -210 5 -250 17 -250 13 0 15 39 15
256 l0 256 -29 29 -29 29 -164 0 c-122 -1 -170 -4 -189 -15z"/>
<path d="M633 1386 l-28 -24 -3 -218 c-2 -140 1 -226 8 -243 20 -50 42 -56
223 -59 93 -2 180 -1 193 2 l24 7 -2 162 -3 162 -107 3 c-92 2 -108 0 -108
-13 0 -12 15 -15 83 -15 51 0 88 -5 95 -12 14 -14 17 -225 3 -246 -6 -10 -45
-13 -175 -10 -152 3 -169 5 -182 22 -11 16 -14 64 -14 228 0 195 1 209 20 228
19 19 33 20 205 20 158 0 185 2 185 15 0 13 -28 15 -194 15 -192 0 -195 0
-223 -24z"/>
<path d="M1130 1396 c0 -10 21 -15 81 -18 108 -6 113 -12 117 -134 l4 -95 51
3 52 3 3 80 c1 44 4 90 7 102 6 27 52 43 126 43 46 0 59 3 59 15 0 12 -16 15
-84 15 -75 0 -88 -3 -113 -24 -26 -22 -28 -32 -33 -108 -4 -65 -8 -83 -20 -83
-12 0 -16 16 -18 75 -4 122 -23 140 -152 140 -61 0 -80 -3 -80 -14z"/>
<path d="M1745 1386 c-28 -28 -39 -91 -33 -185 9 -118 30 -131 215 -131 l124
0 -3 -57 -3 -58 -167 -3 c-141 -2 -168 -5 -168 -17 0 -13 26 -15 188 -13 l187
3 0 90 0 90 -152 5 c-106 3 -156 9 -165 18 -8 8 -14 47 -16 105 -3 81 -1 96
16 117 20 25 22 25 211 28 157 3 191 6 191 18 0 12 -34 14 -200 14 -198 0
-201 0 -225 -24z"/>
<path d="M692 1332 c-9 -7 -12 -55 -10 -208 l3 -199 134 -3 c90 -2 138 1 147
9 18 15 19 150 2 167 -7 7 -39 12 -75 12 -56 0 -63 -2 -63 -19 0 -17 8 -20 53
-23 l52 -3 0 -55 0 -55 -110 0 -110 0 0 170 0 170 168 3 c159 2 167 3 167 22
0 19 -7 20 -172 20 -95 0 -179 -4 -186 -8z"/>
<path d="M145 1318 c-3 -8 -4 -117 -3 -243 3 -197 5 -230 18 -230 13 0 16 34
20 225 l5 225 110 0 110 0 5 -224 c4 -169 8 -225 18 -229 10 -3 12 47 10 240
l-3 243 -143 3 c-110 2 -144 0 -147 -10z"/>
<path d="M1130 1315 c0 -10 15 -15 58 -17 l57 -3 0 -170 0 -170 -57 -3 c-43
-2 -58 -7 -58 -17 0 -19 130 -21 148 -3 13 13 18 351 6 382 -9 22 -154 24
-154 1z"/>
<path d="M1480 1311 c-6 -11 -10 -90 -10 -186 0 -96 4 -175 10 -186 9 -16 22
-19 80 -19 56 0 70 3 70 15 0 12 -13 15 -55 15 -68 0 -67 -4 -63 195 l3 150
58 3 c42 2 57 7 57 17 0 12 -15 15 -70 15 -58 0 -71 -3 -80 -19z"/>
<path d="M1794 1317 c-3 -8 -4 -47 -2 -88 l3 -74 146 -5 c190 -6 189 -6 189
-136 0 -88 -1 -94 -26 -113 -25 -20 -40 -21 -211 -21 -170 0 -184 -1 -181 -17
3 -16 20 -18 158 -21 186 -4 232 2 268 33 25 21 27 30 31 111 4 102 -10 158
-45 181 -23 14 -126 23 -283 23 -8 0 -11 16 -9 53 l3 52 168 3 c139 2 167 5
167 17 0 21 -368 22 -376 2z"/>
<path d="M1335 1098 c-2 -7 -5 -51 -7 -96 -4 -109 -17 -122 -125 -122 -66 0
-74 -2 -71 -17 7 -38 164 -28 204 12 21 21 24 34 24 98 0 50 4 78 13 86 22 17
27 3 27 -71 0 -73 17 -121 47 -133 10 -4 55 -9 101 -12 78 -6 82 -5 82 15 0
18 -7 20 -81 24 -102 4 -109 12 -109 119 0 43 -3 84 -6 93 -8 20 -92 23 -99 4z"/>
</g>
</svg>
