<?xml version="1.0" standalone="yes"?>
<svg xmlns="http://www.w3.org/2000/svg" width="224" height="224">
<path style="fill:#0d354b; stroke:none;" d="M0 0L0 224L224 224L224 0L0 0z"/>
<path style="fill:#667a87; stroke:none;" d="M110 56L111 57L110 56z"/>
<path style="fill:#9eaab2; stroke:none;" d="M111 56L112 57L111 56z"/>
<path style="fill:#fdfdfd; stroke:none;" d="M112.04 56.8511C104.136 59.102 97.1081 77.37 92.9498 84C86.4917 94.297 80.224 104.712 73.7508 115C71.1071 119.202 66.1897 124.769 66.3465 130C66.5632 137.233 74.8392 146.123 78.6566 152C81.7127 156.705 84.7105 164.252 90.0401 166.781C94.6666 168.976 103.414 165.125 108 163.573C122.126 158.791 136.937 155.883 150.999 150.956C162.08 147.074 155.919 137.527 152.363 130L126.781 76C124.319 70.7886 120.184 54.5318 112.04 56.8511z"/>
<path style="fill:#9eaab2; stroke:none;" d="M115 56L116 57L115 56z"/>
<path style="fill:#667a87; stroke:none;" d="M116 56L117 57L116 56z"/>
<path style="fill:#9eaab2; stroke:none;" d="M109 57L110 58L109 57M117 57L119 59L117 57z"/>
<path style="fill:#395568; stroke:none;" d="M118 57L119 58L118 57z"/>
<path style="fill:#667a87; stroke:none;" d="M108 58L109 59L108 58z"/>
<path style="fill:#395568; stroke:none;" d="M119 59L120 60L119 59z"/>
<path style="fill:#9eaab2; stroke:none;" d="M107 60L108 61L107 60z"/>
<path style="fill:#667a87; stroke:none;" d="M106 61L107 62L106 61z"/>
<path style="fill:#395568; stroke:none;" d="M120 61L121 62L120 61M105 62L106 63L105 62z"/>
<path style="fill:#9eaab2; stroke:none;" d="M120 62L121 63L120 62M105 63L106 64L105 63z"/>
<path style="fill:#395568; stroke:none;" d="M121 63L122 64L121 63M104 64L105 65L104 64z"/>
<path style="fill:#9eaab2; stroke:none;" d="M121 64L122 65L121 64M104 65L105 66L104 65z"/>
<path style="fill:#395568; stroke:none;" d="M122 65L123 66L122 65z"/>
<path style="fill:#667a87; stroke:none;" d="M103 66L104 67L103 66z"/>
<path style="fill:#9eaab2; stroke:none;" d="M122 66L123 67L122 66z"/>
<path style="fill:#395568; stroke:none;" d="M123 67L124 68L123 67z"/>
<path style="fill:#9eaab2; stroke:none;" d="M102 68L103 69L102 68M123 68L124 69L123 68z"/>
<path style="fill:#667a87; stroke:none;" d="M101 69L102 70L101 69z"/>
<path style="fill:#9eaab2; stroke:none;" d="M101 70L102 71L101 70M114 70L115 71L114 70z"/>
<path style="fill:#395568; stroke:none;" d="M115.667 70.3333L116.333 70.6667L115.667 70.3333z"/>
<path style="fill:#9eaab2; stroke:none;" d="M117 70L118 71L117 70z"/>
<path style="fill:#667a87; stroke:none;" d="M124 70L125 71L124 70z"/>
<path style="fill:#9eaab2; stroke:none;" d="M100 71L101 72L100 71z"/>
<path style="fill:#667a87; stroke:none;" d="M114 71L115 72L114 71z"/>
<path style="fill:#0d354b; stroke:none;" d="M115 71L96 158L115 154.653L150 144L138.258 116L117 71L115 71z"/>
<path style="fill:#667a87; stroke:none;" d="M117 71L118 72L117 71z"/>
<path style="fill:#395568; stroke:none;" d="M114 72L115 73L114 72z"/>
<path style="fill:#9eaab2; stroke:none;" d="M118.333 72.6667L118.667 73.3333L118.333 72.6667z"/>
<path style="fill:#667a87; stroke:none;" d="M125 72L126 73L125 72z"/>
<path style="fill:#9eaab2; stroke:none;" d="M99 73L100 74L99 73M113.333 73.6667L113.667 74.3333L113.333 73.6667M125 73L126 74L125 73z"/>
<path style="fill:#667a87; stroke:none;" d="M98 74L99 75L98 74z"/>
<path style="fill:#395568; stroke:none;" d="M118 74L119 75L118 74z"/>
<path style="fill:#667a87; stroke:none;" d="M126 74L127 75L126 74z"/>
<path style="fill:#395568; stroke:none;" d="M97 75L98 76L97 75z"/>
<path style="fill:#9eaab2; stroke:none;" d="M98 75L99 76L98 75z"/>
<path style="fill:#667a87; stroke:none;" d="M113 75L114 76L113 75M119 75L120 76L119 75z"/>
<path style="fill:#9eaab2; stroke:none;" d="M126 75L127 76L126 75z"/>
<path style="fill:#395568; stroke:none;" d="M127 75L128 76L127 75z"/>
<path style="fill:#9eaab2; stroke:none;" d="M97 76L98 77L97 76z"/>
<path style="fill:#395568; stroke:none;" d="M113 76L114 77L113 76z"/>
<path style="fill:#667a87; stroke:none;" d="M127 76L128 77L127 76M96 77L97 78L96 77M120 77L121 78L120 77z"/>
<path style="fill:#9eaab2; stroke:none;" d="M127 77L128 78L127 77M96 78L97 79L96 78M112 78L113 79L112 78z"/>
<path style="fill:#395568; stroke:none;" d="M120 78L121 79L120 78M128 78L129 79L128 78M95 79L96 80L95 79z"/>
<path style="fill:#667a87; stroke:none;" d="M112 79L113 80L112 79z"/>
<path style="fill:#9eaab2; stroke:none;" d="M121 79L122 80L121 79M128 79L129 80L128 79z"/>
<path style="fill:#395568; stroke:none;" d="M94 80L95 81L94 80M112 80L113 81L112 80z"/>
<path style="fill:#667a87; stroke:none;" d="M121 80L122 81L121 80z"/>
<path style="fill:#395568; stroke:none;" d="M129 80L130 81L129 80z"/>
<path style="fill:#9eaab2; stroke:none;" d="M94 81L95 82L94 81M122 81L123 82L122 81M129 81L130 82L129 81z"/>
<path style="fill:#667a87; stroke:none;" d="M93 82L94 83L93 82z"/>
<path style="fill:#395568; stroke:none;" d="M122 82L123 83L122 82z"/>
<path style="fill:#667a87; stroke:none;" d="M130 82L131 83L130 82z"/>
<path style="fill:#9eaab2; stroke:none;" d="M93 83L94 84L93 83M111 83L112 84L111 83M123 83L124 84L123 83M130 83L131 84L130 83z"/>
<path style="fill:#667a87; stroke:none;" d="M92 84L93 85L92 84M111.333 84.6667L111.667 85.3333L111.333 84.6667z"/>
<path style="fill:#395568; stroke:none;" d="M131 84L132 85L131 84z"/>
<path style="fill:#9eaab2; stroke:none;" d="M124 85L125 86L124 85z"/>
<path style="fill:#667a87; stroke:none;" d="M131 85L132 86L131 85z"/>
<path style="fill:#9eaab2; stroke:none;" d="M91 86L92 87L91 86z"/>
<path style="fill:#395568; stroke:none;" d="M111 86L112 87L111 86z"/>
<path style="fill:#667a87; stroke:none;" d="M124 86L125 87L124 86M90 87L91 88L90 87z"/>
<path style="fill:#9eaab2; stroke:none;" d="M110.333 87.6667L110.667 88.3333L110.333 87.6667z"/>
<path style="fill:#395568; stroke:none;" d="M124 87L125 88L124 87z"/>
<path style="fill:#9eaab2; stroke:none;" d="M125 87L126 88L125 87z"/>
<path style="fill:#667a87; stroke:none;" d="M132 87L133 88L132 87z"/>
<path style="fill:#395568; stroke:none;" d="M89 88L90 89L89 88z"/>
<path style="fill:#667a87; stroke:none;" d="M125 88L126 89L125 88z"/>
<path style="fill:#9eaab2; stroke:none;" d="M89 89L90 90L89 89z"/>
<path style="fill:#667a87; stroke:none;" d="M110 89L111 90L110 89z"/>
<path style="fill:#395568; stroke:none;" d="M125 89L126 90L125 89z"/>
<path style="fill:#9eaab2; stroke:none;" d="M126 89L127 90L126 89M133.333 89.6667L133.667 90.3333L133.333 89.6667z"/>
<path style="fill:#395568; stroke:none;" d="M88 90L89 91L88 90M110 90L111 91L110 90z"/>
<path style="fill:#667a87; stroke:none;" d="M126 90L127 91L126 90z"/>
<path style="fill:#395568; stroke:none;" d="M134 90L135 91L134 90z"/>
<path style="fill:#9eaab2; stroke:none;" d="M88 91L89 92L88 91M109 91L109 94L110 94L109 91z"/>
<path style="fill:#667a87; stroke:none;" d="M134 91L135 92L134 91M87 92L88 93L87 92M127 92L128 93L127 92z"/>
<path style="fill:#9eaab2; stroke:none;" d="M134 92L135 93L134 92z"/>
<path style="fill:#395568; stroke:none;" d="M86 93L87 94L86 93z"/>
<path style="fill:#667a87; stroke:none;" d="M135 93L136 94L135 93z"/>
<path style="fill:#9eaab2; stroke:none;" d="M86 94L87 95L86 94z"/>
<path style="fill:#667a87; stroke:none;" d="M109 94L110 95L109 94z"/>
<path style="fill:#9eaab2; stroke:none;" d="M128 94L129 95L128 94M135 94L136 95L135 94z"/>
<path style="fill:#395568; stroke:none;" d="M85 95L84 97L85 95M109 95L110 96L109 95z"/>
<path style="fill:#667a87; stroke:none;" d="M128 95L129 96L128 95z"/>
<path style="fill:#395568; stroke:none;" d="M136 95L137 96L136 95z"/>
<path style="fill:#9eaab2; stroke:none;" d="M85 96L86 97L85 96M129 96L130 97L129 96M136 96L137 97L136 96M84 97L85 98L84 97M108.333 97.6667L108.667 98.3333L108.333 97.6667z"/>
<path style="fill:#395568; stroke:none;" d="M129 97L130 98L129 97M137 97L138 98L137 97z"/>
<path style="fill:#9eaab2; stroke:none;" d="M130 98L131 99L130 98M137 98L138 99L137 98M83 99L84 100L83 99z"/>
<path style="fill:#667a87; stroke:none;" d="M108 99L109 100L108 99M130 99L131 100L130 99z"/>
<path style="fill:#395568; stroke:none;" d="M138 99L139 100L138 99z"/>
<path style="fill:#9eaab2; stroke:none;" d="M82 100L83 101L82 100M131 100L132 101L131 100M138 100L139 101L138 100z"/>
<path style="fill:#395568; stroke:none;" d="M81 101L82 102L81 101M131 101L132 102L131 101M139 101L140 102L139 101z"/>
<path style="fill:#9eaab2; stroke:none;" d="M81 102L82 103L81 102M107 102L108 103L107 102M132 102L133 103L132 102M139 102L140 103L139 102z"/>
<path style="fill:#395568; stroke:none;" d="M80 103L81 104L80 103z"/>
<path style="fill:#667a87; stroke:none;" d="M107 103L108 104L107 103M132 103L133 104L132 103z"/>
<path style="fill:#9eaab2; stroke:none;" d="M80 104L81 105L80 104z"/>
<path style="fill:#395568; stroke:none;" d="M107.333 104.667L107.667 105.333L107.333 104.667z"/>
<path style="fill:#9eaab2; stroke:none;" d="M133 104L134 105L133 104z"/>
<path style="fill:#667a87; stroke:none;" d="M140 104L141 105L140 104M79 105L80 106L79 105z"/>
<path style="fill:#9eaab2; stroke:none;" d="M106 105L106 108L107 108L106 105z"/>
<path style="fill:#667a87; stroke:none;" d="M133 105L134 106L133 105M78 106L79 107L78 106z"/>
<path style="fill:#395568; stroke:none;" d="M133 106L134 107L133 106z"/>
<path style="fill:#9eaab2; stroke:none;" d="M134.333 106.667L134.667 107.333L134.333 106.667M141 106L142 107L141 106M78 107L79 108L78 107z"/>
<path style="fill:#395568; stroke:none;" d="M142 107L143 108L142 107z"/>
<path style="fill:#667a87; stroke:none;" d="M77 108L78 109L77 108M106.333 108.667L106.667 109.333L106.333 108.667z"/>
<path style="fill:#395568; stroke:none;" d="M134 108L135 109L134 108z"/>
<path style="fill:#9eaab2; stroke:none;" d="M142.333 108.667L142.667 109.333L142.333 108.667z"/>
<path style="fill:#395568; stroke:none;" d="M76 109L77 110L76 109z"/>
<path style="fill:#9eaab2; stroke:none;" d="M77 109L78 110L77 109z"/>
<path style="fill:#667a87; stroke:none;" d="M135 109L136 110L135 109z"/>
<path style="fill:#395568; stroke:none;" d="M143 109L144 110L143 109z"/>
<path style="fill:#9eaab2; stroke:none;" d="M76 110L77 111L76 110z"/>
<path style="fill:#395568; stroke:none;" d="M106 110L107 111L106 110z"/>
<path style="fill:#667a87; stroke:none;" d="M143 110L144 111L143 110z"/>
<path style="fill:#395568; stroke:none;" d="M75 111L76 112L75 111z"/>
<path style="fill:#9eaab2; stroke:none;" d="M105.333 111.667L105.667 112.333L105.333 111.667M136 111L137 112L136 111M143 111L144 112L143 111z"/>
<path style="fill:#395568; stroke:none;" d="M136 112L137 113L136 112M144 112L145 113L144 112z"/>
<path style="fill:#667a87; stroke:none;" d="M74 113L75 114L74 113M105.333 113.667L105.667 114.333L105.333 113.667z"/>
<path style="fill:#9eaab2; stroke:none;" d="M137 113L138 114L137 113M144 113L145 114L144 113z"/>
<path style="fill:#395568; stroke:none;" d="M73 114L74 115L73 114z"/>
<path style="fill:#9eaab2; stroke:none;" d="M74 114L75 115L74 114z"/>
<path style="fill:#667a87; stroke:none;" d="M137 114L138 115L137 114M145 114L146 115L145 114z"/>
<path style="fill:#9eaab2; stroke:none;" d="M73 115L74 116L73 115M138 115L139 116L138 115M145 115L146 116L145 115z"/>
<path style="fill:#667a87; stroke:none;" d="M72 116L73 117L72 116z"/>
<path style="fill:#395568; stroke:none;" d="M138 116L139 117L138 116z"/>
<path style="fill:#667a87; stroke:none;" d="M146 116L147 117L146 116z"/>
<path style="fill:#9eaab2; stroke:none;" d="M104 117L105 118L104 117M139 117L140 118L139 117M146 117L147 118L146 117z"/>
<path style="fill:#667a87; stroke:none;" d="M71 118L72 119L71 118z"/>
<path style="fill:#395568; stroke:none;" d="M104 118L105 119L104 118M139 118L140 119L139 118M147 118L148 119L147 118z"/>
<path style="fill:#9eaab2; stroke:none;" d="M140 119L141 120L140 119z"/>
<path style="fill:#667a87; stroke:none;" d="M147 119L148 120L147 119z"/>
<path style="fill:#9eaab2; stroke:none;" d="M70 120L71 121L70 120M103.333 120.667L103.667 121.333L103.333 120.667z"/>
<path style="fill:#667a87; stroke:none;" d="M140 120L141 121L140 120M69 121L70 122L69 121z"/>
<path style="fill:#9eaab2; stroke:none;" d="M141 121L142 122L141 121M148 121L149 122L148 121z"/>
<path style="fill:#395568; stroke:none;" d="M68 122L69 123L68 122z"/>
<path style="fill:#667a87; stroke:none;" d="M103 122L104 123L103 122M141 122L142 123L141 122M68 123L69 124L68 123z"/>
<path style="fill:#395568; stroke:none;" d="M103.333 123.667L103.667 124.333L103.333 123.667z"/>
<path style="fill:#9eaab2; stroke:none;" d="M142 123L143 124L142 123z"/>
<path style="fill:#667a87; stroke:none;" d="M149 123L150 124L149 123M142 124L143 125L142 124z"/>
<path style="fill:#9eaab2; stroke:none;" d="M149 124L150 125L149 124M67 125L68 126L67 125M102 125L102 128L103 128L102 125z"/>
<path style="fill:#667a87; stroke:none;" d="M150 125L151 126L150 125M66 126L67 127L66 126z"/>
<path style="fill:#9eaab2; stroke:none;" d="M143 126L144 127L143 126M150 126L151 127L150 126z"/>
<path style="fill:#395568; stroke:none;" d="M65 127L66 128L65 127z"/>
<path style="fill:#667a87; stroke:none;" d="M151 127L152 128L151 127M65 128L66 129L65 128M102 128L103 129L102 128M144 128L145 129L144 128z"/>
<path style="fill:#9eaab2; stroke:none;" d="M65.3333 129.667L65.6667 130.333L65.3333 129.667z"/>
<path style="fill:#395568; stroke:none;" d="M102.333 129.667L102.667 130.333L102.333 129.667M144 129L145 130L144 129M152 129L153 130L152 129z"/>
<path style="fill:#9eaab2; stroke:none;" d="M101.333 130.667L101.667 131.333L101.333 130.667M145 130L146 131L145 130M152 130L153 131L152 130z"/>
<path style="fill:#667a87; stroke:none;" d="M65 131L66 132L65 131z"/>
<path style="fill:#395568; stroke:none;" d="M145 131L146 132L145 131M153 131L154 132L153 131M65 132L66 133L65 132z"/>
<path style="fill:#9eaab2; stroke:none;" d="M66 132L67 133L66 132z"/>
<path style="fill:#667a87; stroke:none;" d="M101 132L102 133L101 132z"/>
<path style="fill:#9eaab2; stroke:none;" d="M146 132L147 133L146 132M153 132L154 133L153 132z"/>
<path style="fill:#667a87; stroke:none;" d="M66 133L67 134L66 133z"/>
<path style="fill:#395568; stroke:none;" d="M101 133L102 134L101 133z"/>
<path style="fill:#667a87; stroke:none;" d="M146 133L147 134L146 133M154 133L155 134L154 133z"/>
<path style="fill:#9eaab2; stroke:none;" d="M67 134L68 135L67 134M147 134L148 135L147 134M154 134L155 135L154 134M100 135L101 136L100 135z"/>
<path style="fill:#395568; stroke:none;" d="M155 135L156 136L155 135z"/>
<path style="fill:#667a87; stroke:none;" d="M68 136L69 137L68 136M100 136L101 137L100 136z"/>
<path style="fill:#9eaab2; stroke:none;" d="M148 136L149 137L148 136M155 136L156 137L155 136M69 137L70 138L69 137z"/>
<path style="fill:#395568; stroke:none;" d="M100 137L101 138L100 137M148 137L149 138L148 137M69 138L70 139L69 138z"/>
<path style="fill:#9eaab2; stroke:none;" d="M149 138L150 139L149 138z"/>
<path style="fill:#667a87; stroke:none;" d="M156 138L157 139L156 138M70 139L71 140L70 139M149 139L150 140L149 139z"/>
<path style="fill:#9eaab2; stroke:none;" d="M156 139L157 140L156 139M71 140L72 141L71 140M99.3333 140.667L99.6667 141.333L99.3333 140.667z"/>
<path style="fill:#395568; stroke:none;" d="M149 140L150 141L149 140z"/>
<path style="fill:#9eaab2; stroke:none;" d="M150.333 140.667L150.667 141.333L150.333 140.667M157 140L158 141L157 140z"/>
<path style="fill:#395568; stroke:none;" d="M71 141L72 142L71 141M158 141L159 142L158 141z"/>
<path style="fill:#9eaab2; stroke:none;" d="M72 142L74 144L72 142z"/>
<path style="fill:#667a87; stroke:none;" d="M99 142L100 143L99 142z"/>
<path style="fill:#395568; stroke:none;" d="M150 142L151 143L150 142z"/>
<path style="fill:#667a87; stroke:none;" d="M158 142L159 143L158 142z"/>
<path style="fill:#395568; stroke:none;" d="M72 143L73 144L72 143M99.3333 143.667L99.6667 144.333L99.3333 143.667z"/>
<path style="fill:#667a87; stroke:none;" d="M150 143L151 144L150 143z"/>
<path style="fill:#9eaab2; stroke:none;" d="M158.333 143.667L158.667 144.333L158.333 143.667z"/>
<path style="fill:#667a87; stroke:none;" d="M73 144L74 145L73 144z"/>
<path style="fill:#9eaab2; stroke:none;" d="M98 144L98 147L99 147L98 144z"/>
<path style="fill:#395568; stroke:none;" d="M148 144L149 145L148 144z"/>
<path style="fill:#667a87; stroke:none;" d="M149 144L150 145L149 144z"/>
<path style="fill:#9eaab2; stroke:none;" d="M74 145L75 146L74 145z"/>
<path style="fill:#395568; stroke:none;" d="M145 145L146 146L145 145z"/>
<path style="fill:#667a87; stroke:none;" d="M146 145L147 146L146 145z"/>
<path style="fill:#9eaab2; stroke:none;" d="M147.667 145.333L148.333 145.667L147.667 145.333z"/>
<path style="fill:#667a87; stroke:none;" d="M158 145L159 146L158 145z"/>
<path style="fill:#395568; stroke:none;" d="M74 146L75 147L74 146z"/>
<path style="fill:#667a87; stroke:none;" d="M142 146L143 147L142 146z"/>
<path style="fill:#9eaab2; stroke:none;" d="M143.667 146.333L144.333 146.667L143.667 146.333z"/>
<path style="fill:#395568; stroke:none;" d="M158 146L159 147L158 146z"/>
<path style="fill:#667a87; stroke:none;" d="M75 147L76 148L75 147M98 147L99 148L98 147z"/>
<path style="fill:#395568; stroke:none;" d="M139 147L140 148L139 147z"/>
<path style="fill:#9eaab2; stroke:none;" d="M140 147L141 148L140 147M157 147L158 148L157 147M76 148L77 149L76 148z"/>
<path style="fill:#395568; stroke:none;" d="M98 148L99 149L98 148M134.667 148.333L135.333 148.667L134.667 148.333z"/>
<path style="fill:#667a87; stroke:none;" d="M136 148L137 149L136 148z"/>
<path style="fill:#9eaab2; stroke:none;" d="M137 148L138 149L137 148M156 148L157 149L156 148z"/>
<path style="fill:#395568; stroke:none;" d="M76 149L77 150L76 149z"/>
<path style="fill:#9eaab2; stroke:none;" d="M97.3333 149.667L97.6667 150.333L97.3333 149.667z"/>
<path style="fill:#395568; stroke:none;" d="M131 149L132 150L131 149z"/>
<path style="fill:#667a87; stroke:none;" d="M132 149L133 150L132 149z"/>
<path style="fill:#9eaab2; stroke:none;" d="M133.667 149.333L134.333 149.667L133.667 149.333M155 149L156 150L155 149z"/>
<path style="fill:#667a87; stroke:none;" d="M77 150L78 151L77 150z"/>
<path style="fill:#395568; stroke:none;" d="M128 150L129 151L128 150z"/>
<path style="fill:#9eaab2; stroke:none;" d="M129.667 150.333L130.333 150.667L129.667 150.333M152 150L153 151L152 150z"/>
<path style="fill:#667a87; stroke:none;" d="M153 150L154 151L153 150z"/>
<path style="fill:#395568; stroke:none;" d="M154 150L155 151L154 150z"/>
<path style="fill:#9eaab2; stroke:none;" d="M78 151L79 152L78 151z"/>
<path style="fill:#667a87; stroke:none;" d="M97 151L98 152L97 151M126 151L127 152L126 151z"/>
<path style="fill:#9eaab2; stroke:none;" d="M127 151L128 152L127 151M149 151L150 152L149 151z"/>
<path style="fill:#667a87; stroke:none;" d="M150 151L151 152L150 151z"/>
<path style="fill:#395568; stroke:none;" d="M151 151L152 152L151 151M78 152L79 153L78 152M97 152L98 153L97 152M121 152L122 153L121 152z"/>
<path style="fill:#667a87; stroke:none;" d="M122 152L123 153L122 152z"/>
<path style="fill:#9eaab2; stroke:none;" d="M123 152L124 153L123 152M145 152L146 153L145 152z"/>
<path style="fill:#667a87; stroke:none;" d="M146 152L147 153L146 152M79 153L80 154L79 153M118 153L119 154L118 153z"/>
<path style="fill:#9eaab2; stroke:none;" d="M119.667 153.333L120.333 153.667L119.667 153.333M141.667 153.333L142.333 153.667L141.667 153.333z"/>
<path style="fill:#667a87; stroke:none;" d="M143 153L144 154L143 153z"/>
<path style="fill:#9eaab2; stroke:none;" d="M80 154L81 155L80 154z"/>
<path style="fill:#395568; stroke:none;" d="M115 154L116 155L115 154z"/>
<path style="fill:#9eaab2; stroke:none;" d="M116.667 154.333L117.333 154.667L116.667 154.333M138.667 154.333L139.333 154.667L138.667 154.333z"/>
<path style="fill:#667a87; stroke:none;" d="M140 154L141 155L140 154z"/>
<path style="fill:#395568; stroke:none;" d="M80 155L81 156L80 155z"/>
<path style="fill:#9eaab2; stroke:none;" d="M96 155L97 156L96 155z"/>
<path style="fill:#667a87; stroke:none;" d="M112 155L113 156L112 155z"/>
<path style="fill:#9eaab2; stroke:none;" d="M113 155L114 156L113 155M135 155L136 156L135 155z"/>
<path style="fill:#667a87; stroke:none;" d="M136 155L137 156L136 155z"/>
<path style="fill:#395568; stroke:none;" d="M137 155L138 156L137 155z"/>
<path style="fill:#9eaab2; stroke:none;" d="M81 156L82 157L81 156z"/>
<path style="fill:#667a87; stroke:none;" d="M96 156L97 157L96 156z"/>
<path style="fill:#395568; stroke:none;" d="M107 156L108 157L107 156z"/>
<path style="fill:#667a87; stroke:none;" d="M108 156L109 157L108 156z"/>
<path style="fill:#9eaab2; stroke:none;" d="M109 156L110 157L109 156M131 156L132 157L131 156z"/>
<path style="fill:#667a87; stroke:none;" d="M132 156L133 157L132 156z"/>
<path style="fill:#395568; stroke:none;" d="M81 157L82 158L81 157M104 157L105 158L104 157z"/>
<path style="fill:#667a87; stroke:none;" d="M105 157L106 158L105 157z"/>
<path style="fill:#9eaab2; stroke:none;" d="M106.667 157.333L107.333 157.667L106.667 157.333M128.667 157.333L129.333 157.667L128.667 157.333z"/>
<path style="fill:#395568; stroke:none;" d="M130 157L131 158L130 157z"/>
<path style="fill:#667a87; stroke:none;" d="M82 158L83 159L82 158M96 158L97 159L96 158z"/>
<path style="fill:#395568; stroke:none;" d="M101 158L102 159L101 158z"/>
<path style="fill:#667a87; stroke:none;" d="M102 158L103 159L102 158z"/>
<path style="fill:#9eaab2; stroke:none;" d="M103 158L104 159L103 158M124.667 158.333L125.333 158.667L124.667 158.333z"/>
<path style="fill:#667a87; stroke:none;" d="M126 158L127 159L126 158z"/>
<path style="fill:#395568; stroke:none;" d="M127 158L128 159L127 158z"/>
<path style="fill:#667a87; stroke:none;" d="M83 159L84 160L83 159M97.6667 159.333L98.3333 159.667L97.6667 159.333z"/>
<path style="fill:#9eaab2; stroke:none;" d="M99 159L100 160L99 159M121 159L122 160L121 159z"/>
<path style="fill:#667a87; stroke:none;" d="M122 159L123 160L122 159z"/>
<path style="fill:#395568; stroke:none;" d="M123.667 159.333L124.333 159.667L123.667 159.333z"/>
<path style="fill:#9eaab2; stroke:none;" d="M118 160L119 161L118 160z"/>
<path style="fill:#667a87; stroke:none;" d="M119 160L120 161L119 160M84 161L85 162L84 161z"/>
<path style="fill:#9eaab2; stroke:none;" d="M114.667 161.333L115.333 161.667L114.667 161.333z"/>
<path style="fill:#667a87; stroke:none;" d="M116 161L117 162L116 161z"/>
<path style="fill:#395568; stroke:none;" d="M117 161L118 162L117 161z"/>
<path style="fill:#9eaab2; stroke:none;" d="M85 162L86 163L85 162M110.667 162.333L111.333 162.667L110.667 162.333z"/>
<path style="fill:#667a87; stroke:none;" d="M112.667 162.333L113.333 162.667L112.667 162.333z"/>
<path style="fill:#9eaab2; stroke:none;" d="M108 163L109 164L108 163z"/>
<path style="fill:#395568; stroke:none;" d="M109.667 163.333L110.333 163.667L109.667 163.333z"/>
<path style="fill:#667a87; stroke:none;" d="M86 164L87 165L86 164z"/>
<path style="fill:#9eaab2; stroke:none;" d="M105 164L106 165L105 164z"/>
<path style="fill:#395568; stroke:none;" d="M106 164L107 165L106 164z"/>
<path style="fill:#9eaab2; stroke:none;" d="M87 165L88 166L87 165M100.667 165.333L101.333 165.667L100.667 165.333z"/>
<path style="fill:#667a87; stroke:none;" d="M102 165L103 166L102 165z"/>
<path style="fill:#395568; stroke:none;" d="M103 165L104 166L103 165z"/>
<path style="fill:#9eaab2; stroke:none;" d="M88 166L89 167L88 166M97.6667 166.333L98.3333 166.667L97.6667 166.333z"/>
<path style="fill:#667a87; stroke:none;" d="M99 166L100 167L99 166M89 167L90 168L89 167z"/>
<path style="fill:#9eaab2; stroke:none;" d="M90 167L91 168L90 167M94.6667 167.333L95.3333 167.667L94.6667 167.333z"/>
<path style="fill:#395568; stroke:none;" d="M96 167L97 168L96 167z"/>
</svg>
