<?xml version="1.0" standalone="no"?>
<!DOCTYPE svg PUBLIC "-//W3C//DTD SVG 20010904//EN"
 "http://www.w3.org/TR/2001/REC-SVG-20010904/DTD/svg10.dtd">
<svg version="1.0" xmlns="http://www.w3.org/2000/svg"
 width="225.000000pt" height="225.000000pt" viewBox="0 0 225.000000 225.000000"
 preserveAspectRatio="xMidYMid meet">

<g transform="translate(0.000000,225.000000) scale(0.100000,-0.100000)"
fill="#000000" stroke="none">
<path d="M725 2199 c-18 -5 -64 -44 -112 -94 -90 -94 -120 -111 -232 -131
-125 -22 -160 -64 -168 -202 -7 -104 -17 -126 -83 -183 -103 -89 -119 -146
-80 -269 26 -82 26 -163 0 -200 -51 -71 -42 -127 36 -220 25 -30 59 -84 76
-120 89 -194 148 -281 267 -401 163 -162 340 -260 580 -321 104 -26 359 -32
451 -10 228 56 375 137 524 292 99 103 187 231 210 307 6 20 -2 17 -61 -23
-95 -63 -226 -125 -276 -131 l-42 -5 64 39 c226 135 370 403 351 652 l-5 64
-23 -47 c-47 -97 -183 -279 -197 -264 -3 3 11 32 30 64 54 89 77 173 83 295 6
140 -23 241 -89 319 -11 14 -17 19 -13 11 14 -28 33 -137 34 -197 0 -74 -28
-208 -62 -291 -53 -130 -109 -213 -220 -325 l-106 -108 62 0 c78 0 145 19 219
64 31 19 57 31 57 27 0 -4 -23 -27 -51 -52 -168 -145 -331 -223 -532 -254
l-37 -6 27 -23 c72 -59 188 -105 273 -107 l35 -1 -30 -10 c-16 -6 -93 -11
-170 -11 -129 0 -146 2 -215 27 -146 54 -266 133 -399 260 l-73 71 6 -40 c10
-60 61 -155 113 -208 25 -26 44 -50 41 -53 -13 -12 -140 76 -208 145 -90 91
-140 185 -165 311 -27 132 -7 288 52 404 39 78 145 176 242 224 120 60 132 61
248 14 338 -137 595 -172 735 -101 122 62 98 219 -58 387 -188 203 -499 349
-747 351 -38 1 -56 7 -85 31 -20 16 -57 36 -81 45 -47 16 -148 19 -196 4z"/>
</g>
</svg>
