<?xml version="1.0" standalone="yes"?>
<svg xmlns="http://www.w3.org/2000/svg" width="350" height="144">
<path style="fill:#fcfefe; stroke:none;" d="M0 0L0 144L350 144L350 0L0 0z"/>
<path style="fill:#9a9b9b; stroke:none;" d="M248 26L248 27L251 27L248 26z"/>
<path style="fill:#646364; stroke:none;" d="M251 26L252 27L251 26z"/>
<path style="fill:#1e1b1c; stroke:none;" d="M255 98C257.847 113.716 277.113 120.513 291 116.226C299.409 113.63 304.973 107.027 311 101C322.894 89.1062 343.586 76.3712 344.91 58C346.51 35.8018 324.236 20.8315 304 28.5617C296.723 31.3417 292.119 40.7229 285.104 42.6543C281.41 43.6713 275.193 33.2168 271.999 31.108C262.099 24.5707 248.866 24.7311 239 31.2485C228.501 38.1846 219.864 49.1393 211 58C204.057 64.9411 196.184 71.1406 193.49 81C187.534 102.795 208.695 122.334 230 116.51C240.77 113.566 246.311 104.121 255 98z"/>
<path style="fill:#646364; stroke:none;" d="M259.667 26.3333L260.333 26.6667L259.667 26.3333z"/>
<path style="fill:#9a9b9b; stroke:none;" d="M261 26L262 27L261 26M309 26L310 27L309 26z"/>
<path style="fill:#646364; stroke:none;" d="M310.667 26.3333L311.333 26.6667L310.667 26.3333M319.667 26.3333L320.333 26.6667L319.667 26.3333z"/>
<path style="fill:#9a9b9b; stroke:none;" d="M321.667 26.3333L322.333 26.6667L321.667 26.3333M245 27L246 28L245 27z"/>
<path style="fill:#646364; stroke:none;" d="M246 27L247 28L246 27M264 27L265 28L264 27z"/>
<path style="fill:#9a9b9b; stroke:none;" d="M305 27L306 28L305 27z"/>
<path style="fill:#646364; stroke:none;" d="M306.667 27.3333L307.333 27.6667L306.667 27.3333M323.667 27.3333L324.333 27.6667L323.667 27.3333z"/>
<path style="fill:#9a9b9b; stroke:none;" d="M325 27L326 28L325 27M243 28L244 29L243 28z"/>
<path style="fill:#646364; stroke:none;" d="M244 28L245 29L244 28z"/>
<path style="fill:#9a9b9b; stroke:none;" d="M267 28L268 29L267 28M303 28L304 29L303 28z"/>
<path style="fill:#646364; stroke:none;" d="M326.667 28.3333L327.333 28.6667L326.667 28.3333z"/>
<path style="fill:#9a9b9b; stroke:none;" d="M241 29L242 30L241 29M269 29L270 30L269 29M301 29L302 30L301 29M329 29L330 30L329 29M239 30L240 31L239 30z"/>
<path style="fill:#646364; stroke:none;" d="M216 59C232.522 59 250.022 67.1429 251 86L253 86C253.676 72.9707 263.869 67.3877 271 58L257 58L257 57L278 44C273.776 31.5823 257.527 27.2146 246 31.5625C235.081 35.6809 222.597 49.6343 216 59z"/>
<path style="fill:#9a9b9b; stroke:none;" d="M271 30L272 31L271 30M299 30L300 31L299 30z"/>
<path style="fill:#646364; stroke:none;" d="M276 59C299.868 59 311.461 72.941 311 96C320.46 89.3359 333.656 77.5542 338.672 67C347.82 47.7544 331.669 27.2302 311 30.2099C297.603 32.1411 283.328 48.597 276 59z"/>
<path style="fill:#9a9b9b; stroke:none;" d="M331 30L332 31L331 30z"/>
<path style="fill:#646364; stroke:none;" d="M238 31L239 32L238 31M272 31L273 32L272 31M298 31L299 32L298 31M332 31L333 32L332 31M237 32L238 33L237 32z"/>
<path style="fill:#9a9b9b; stroke:none;" d="M274 32L275 33L274 32z"/>
<path style="fill:#646364; stroke:none;" d="M297 32L298 33L297 32z"/>
<path style="fill:#9a9b9b; stroke:none;" d="M334 32L335 33L334 32M235 33L236 34L235 33M275 33L276 34L275 33M295 33L296 34L295 33M335 33L336 34L335 33M234 34L235 35L234 34M276 34L277 35L276 34M294 34L295 35L294 34M336 34L337 35L336 34M233 35L234 36L233 35M277 35L278 36L277 35M293 35L294 36L293 35M337 35L338 36L337 35M232 36L233 37L232 36M278 36L279 37L278 36M292 36L293 37L292 36M338 36L339 37L338 36M231 37L232 38L231 37M291 37L292 38L291 37M230 38L231 39L230 38z"/>
<path style="fill:#646364; stroke:none;" d="M279 38L280 39L279 38z"/>
<path style="fill:#9a9b9b; stroke:none;" d="M290 38L291 39L290 38z"/>
<path style="fill:#646364; stroke:none;" d="M339 38L340 39L339 38z"/>
<path style="fill:#9a9b9b; stroke:none;" d="M229 39L230 40L229 39M280 39L281 40L280 39M289 39L290 40L289 39M340 39L341 40L340 39M228 40L229 41L228 40M281 40L282 41L281 40M288 40L289 41L288 40M227 41L228 42L227 41z"/>
<path style="fill:#646364; stroke:none;" d="M281 41L282 42L281 41z"/>
<path style="fill:#9a9b9b; stroke:none;" d="M287 41L288 42L287 41z"/>
<path style="fill:#646364; stroke:none;" d="M341 41L342 42L341 41z"/>
<path style="fill:#9a9b9b; stroke:none;" d="M226 42L227 43L226 42M282 42L283 43L282 42M286 42L287 43L286 42M342 42L343 43L342 42M225 43L226 44L225 43z"/>
<path style="fill:#646364; stroke:none;" d="M282 43L283 44L282 43z"/>
<path style="fill:#9a9b9b; stroke:none;" d="M285 43L286 44L285 43z"/>
<path style="fill:#646364; stroke:none;" d="M342 43L343 44L342 43z"/>
<path style="fill:#9a9b9b; stroke:none;" d="M224 44L225 45L224 44M223 45L224 46L223 45M343 45L344 46L343 45M222 46L223 47L222 46M221 47L222 48L221 47z"/>
<path style="fill:#646364; stroke:none;" d="M264 56C272.301 54.5707 276.622 54.5008 282 47C274.259 47.0009 267.783 48.4666 264 56z"/>
<path style="fill:#9a9b9b; stroke:none;" d="M220 48L221 49L220 48M344 48L345 49L344 48M219 49L220 50L219 49z"/>
<path style="fill:#646364; stroke:none;" d="M344 49L345 50L344 49z"/>
<path style="fill:#9a9b9b; stroke:none;" d="M218 50L219 51L218 50M217 51L218 52L217 51M216 52L217 53L216 52M215 53L216 54L215 53M214 54L215 55L214 54M345 54L345 58L346 58L345 54M213 55L214 56L213 55M212 56L213 57L212 56M211 57L212 58L211 57M210 58L211 59L210 58M209 59L210 60L209 59M208 60L209 61L208 60M77 61L78 62L77 61z"/>
<path style="fill:#26b7ee; stroke:none;" d="M86 78C82.9825 75.0066 80.7218 76.4102 77.0193 75.169C63.5528 70.6544 84.6985 65.3026 86 63C82.6591 62.2455 79.4542 61.1946 76 61.8881C68.9129 63.3111 63.57 71.7575 70.2284 77.3472C74.7886 81.1755 81.0032 80.1085 86 78z"/>
<path style="fill:#9a9b9b; stroke:none;" d="M87 61L87 62L105 62L87 61M113 61L113 62L118 62L113 61M126 61L126 62L144 62L126 61M152.667 61.3333L153.333 61.6667L152.667 61.3333z"/>
<path style="fill:#646364; stroke:none;" d="M154 61L154 62L158 62L154 61z"/>
<path style="fill:#9a9b9b; stroke:none;" d="M158.667 61.3333L159.333 61.6667L158.667 61.3333M176 80L176 79L171 79L171 62L176 62C168.039 58.9756 166.447 79.2557 176 80z"/>
<path style="fill:#646364; stroke:none;" d="M176 61L177 62L176 61z"/>
<path style="fill:#9a9b9b; stroke:none;" d="M177 61L177 62L182 62L177 61M207 61L208 62L207 61z"/>
<path style="fill:#646364; stroke:none;" d="M344 61L345 62L344 61z"/>
<path style="fill:#26b7ee; stroke:none;" d="M21 73L9 79C13.496 80.3289 30.834 80.6668 24.8164 71.3179C22.4424 67.6298 16.2447 69.3133 13 66L25 66L25 62C20.8471 62 14.8575 60.9542 11.152 63.179C1.50288 68.9725 16.8369 72.9881 21 73M29 62L29 80L34 80L34 76C39.971 75.9829 53.5518 70.8447 43.8519 63.7423C39.957 60.8904 33.5508 62 29 62M50 62L50 80L65 80L65 76L55 76L55 73C58.6916 72.8796 60.7774 72.6867 62 69L55 69L55 66L65 66L65 62L50 62z"/>
<path style="fill:#9a9b9b; stroke:none;" d="M65.3333 62.6667L65.6667 63.3333L65.3333 62.6667M72 62L73 63L72 62M83 62L84 63L83 62z"/>
<path style="fill:#1e1b1c; stroke:none;" d="M87 62L87 65L94 65L94 79L98 79L98 65L105 65L105 62L87 62z"/>
<path style="fill:#9a9b9b; stroke:none;" d="M110 62L111 63L110 62z"/>
<path style="fill:#646364; stroke:none;" d="M111 62L112 63L111 62z"/>
<path style="fill:#1e1b1c; stroke:none;" d="M107 79L111 79L111 76L120 76L120 79L124 79C124 74.9421 125.075 68.9284 122.821 65.3441C119.703 60.3864 110.771 61.2347 108.028 66.1088C106.047 69.6269 107 75.0992 107 79z"/>
<path style="fill:#9a9b9b; stroke:none;" d="M120 62L121 63L120 62z"/>
<path style="fill:#1e1b1c; stroke:none;" d="M126 62L126 65L133 65L133 79L137 79L137 65L144 65L144 62L126 62z"/>
<path style="fill:#9a9b9b; stroke:none;" d="M150 62L151 63L150 62z"/>
<path style="fill:#1e1b1c; stroke:none;" d="M151.005 62.7423C137.349 68.0577 150.626 83.3478 161.906 78.1451C174.373 72.3952 161.44 58.6801 151.005 62.7423z"/>
<path style="fill:#646364; stroke:none;" d="M161 62L162 63L161 62z"/>
<path style="fill:#9a9b9b; stroke:none;" d="M162 62L163 63L162 62z"/>
<path style="fill:#1e1b1c; stroke:none;" d="M171 62L171 79L175 79L175 76L180 75L186 79C185.835 75.1878 188.119 71.7482 187.714 68.0401C186.872 60.3326 176.411 62 171 62z"/>
<path style="fill:#9a9b9b; stroke:none;" d="M184 62L185 63L184 62M206 62L207 63L206 62M344 62L345 63L344 62M71 63L72 64L71 63z"/>
<path style="fill:#646364; stroke:none;" d="M109 63L110 64L109 63M121 63L122 64L121 63z"/>
<path style="fill:#9a9b9b; stroke:none;" d="M148 63L149 64L148 63z"/>
<path style="fill:#646364; stroke:none;" d="M163 63L164 64L163 63M185 63L186 64L185 63z"/>
<path style="fill:#9a9b9b; stroke:none;" d="M205 63L206 64L205 63z"/>
<path style="fill:#646364; stroke:none;" d="M108 64L109 65L108 64M147 64L148 65L147 64M164 64L165 65L164 64z"/>
<path style="fill:#9a9b9b; stroke:none;" d="M204 64L205 65L204 64M87 65L87 66L93 66L93 79C95.7051 72.5535 94.7747 65.2553 87 65z"/>
<path style="fill:#646364; stroke:none;" d="M93 65L94 66L93 65M98 65L99 66L98 65z"/>
<path style="fill:#9a9b9b; stroke:none;" d="M99 65L99 66L105 66L99 65z"/>
<path style="fill:#646364; stroke:none;" d="M107 65L108 66L107 65M114 65L114 66L117 66L114 65z"/>
<path style="fill:#9a9b9b; stroke:none;" d="M123 65L124 66L123 65M126 65L126 66L132 66L132 79C134.705 72.5535 133.775 65.2553 126 65z"/>
<path style="fill:#646364; stroke:none;" d="M132 65L133 66L132 65M137 65L138 66L137 65z"/>
<path style="fill:#9a9b9b; stroke:none;" d="M138 65L138 66L141 66L138 65z"/>
<path style="fill:#646364; stroke:none;" d="M141 65L142 66L141 65z"/>
<path style="fill:#9a9b9b; stroke:none;" d="M142.667 65.3333L143.333 65.6667L142.667 65.3333z"/>
<path style="fill:#646364; stroke:none;" d="M146 65L147 66L146 65M153 65L154 66L153 65z"/>
<path style="fill:#9a9b9b; stroke:none;" d="M154 65L154 66L158 66L154 65z"/>
<path style="fill:#646364; stroke:none;" d="M158 65L159 66L158 65M165 65L166 66L165 65M175 65L175 72L176 72L175 65z"/>
<path style="fill:#9a9b9b; stroke:none;" d="M176 65L176 66L179 66L176 65z"/>
<path style="fill:#646364; stroke:none;" d="M179.667 65.3333L180.333 65.6667L179.667 65.3333M187 65L188 66L187 65M203 65L204 66L203 65M343 65L344 66L343 65z"/>
<path style="fill:#9a9b9b; stroke:none;" d="M13.3333 66.6667L13.6667 67.3333L13.3333 66.6667z"/>
<path style="fill:#fcfefe; stroke:none;" d="M34 66L34 72C42.7947 71.8958 42.7399 66.212 34 66z"/>
<path style="fill:#9a9b9b; stroke:none;" d="M98 66L98 79L99 79L98 66z"/>
<path style="fill:#646364; stroke:none;" d="M112 66L113 67L112 66z"/>
<path style="fill:#fcfefe; stroke:none;" d="M112 72L119 72C118.463 65.1115 112.537 65.1114 112 72z"/>
<path style="fill:#646364; stroke:none;" d="M118 66L119 67L118 66z"/>
<path style="fill:#9a9b9b; stroke:none;" d="M137 66L137 79L138 79L137 66M145 66L146 67L145 66z"/>
<path style="fill:#fcfefe; stroke:none;" d="M152.319 67.0278C146.331 71.0402 154.834 77.2204 159.681 73.9722C165.669 69.9598 157.166 63.7795 152.319 67.0278z"/>
<path style="fill:#646364; stroke:none;" d="M160 66L161 67L160 66z"/>
<path style="fill:#9a9b9b; stroke:none;" d="M166 66L167 67L166 66z"/>
<path style="fill:#fcfefe; stroke:none;" d="M176 66L176 72C183.235 71.448 183.439 66.2443 176 66z"/>
<path style="fill:#646364; stroke:none;" d="M182 66L183 67L182 66M202 66L203 67L202 66z"/>
<path style="fill:#9a9b9b; stroke:none;" d="M106 67L106 79L107 79L106 67M124 67L124 79L125 79L124 67z"/>
<path style="fill:#646364; stroke:none;" d="M150 67L151 68L150 67M161 67L162 68L161 67M183 67L184 68L183 67z"/>
<path style="fill:#9a9b9b; stroke:none;" d="M188 67L189 68L188 67z"/>
<path style="fill:#646364; stroke:none;" d="M218.667 67.3333L219.333 67.6667L218.667 67.3333z"/>
<path style="fill:#9a9b9b; stroke:none;" d="M219 72C213.672 73.5519 213.057 81.3407 214.806 86C218.485 95.8029 237.797 100.374 241 88C232.339 92.3967 215.205 97.2346 216.188 80C216.418 75.9769 219.487 72.6031 221 69L224 70L224 69C222.04 68.3466 221.446 68 224 68C220.62 66.8668 219.317 68.7808 219 72z"/>
<path style="fill:#646364; stroke:none;" d="M224.667 67.3333L225.333 67.6667L224.667 67.3333M278 67L278 68L281 68L278 67z"/>
<path style="fill:#9a9b9b; stroke:none;" d="M281 67L280 71C272.982 71.8687 273.765 83.1883 276.109 87.956C280.72 97.3352 291.45 96.7811 299 92L299 96L300 96L303 83L302 83C297.096 95.6213 278.838 97.5232 276.204 82.1659C275.054 75.4544 281.251 72.0647 284 67L281 67z"/>
<path style="fill:#646364; stroke:none;" d="M284.667 67.3333L285.333 67.6667L284.667 67.3333M342 67L343 68L342 67z"/>
<path style="fill:#9a9b9b; stroke:none;" d="M8 68L9 69L8 68M55 68L56 69L55 68M72 68L73 69L72 68M111 68L111 71L112 71L111 68M119 68L119 72L120 72L119 68M167 68L168 69L167 68M183 68L184 69L183 68z"/>
<path style="fill:#646364; stroke:none;" d="M188.333 68.6667L188.667 69.3333L188.333 68.6667M200 68L201 69L200 68M214 68L215 69L214 68z"/>
<path style="fill:#26b7ee; stroke:none;" d="M242 86L241 86C237.372 108.832 199.988 83.5066 219 72L220 68C215.466 68.2452 211.67 69.7165 208.093 72.6096C205.088 75.0401 203.007 78.2958 201.939 82C192.385 115.135 248.123 117.394 242 86z"/>
<path style="fill:#fcfefe; stroke:none;" d="M222 68L222 69L224 69L224 70L221 69C218.444 73.1651 215.573 76.8267 216.137 82C217.122 91.0265 226.887 96.727 234.995 92.1813C250.6 83.433 233.82 68.2779 222 68z"/>
<path style="fill:#9a9b9b; stroke:none;" d="M228 68L229 69L228 68z"/>
<path style="fill:#646364; stroke:none;" d="M229 68L230 69L229 68M274.667 68.3333L275.333 68.6667L274.667 68.3333z"/>
<path style="fill:#26b7ee; stroke:none;" d="M303 88L300 96L299 96L299 92C289.335 96.5887 272.889 95.2155 274.333 80C274.865 74.3973 278.884 72.3003 281 68C277.416 68.1641 274.171 68.7139 271.004 70.5332C242.018 87.1842 281.619 128.147 299.597 99.9846C301.915 96.3534 302.467 92.1879 303 88z"/>
<path style="fill:#fcfefe; stroke:none;" d="M284.005 68.9367C268.97 73.4993 277.201 97.5087 292 93.5C309.564 88.7422 297.64 64.7988 284.005 68.9367z"/>
<path style="fill:#9a9b9b; stroke:none;" d="M287.667 68.3333L288.333 68.6667L287.667 68.3333z"/>
<path style="fill:#646364; stroke:none;" d="M289 68L290 69L289 68z"/>
<path style="fill:#9a9b9b; stroke:none;" d="M342 68L343 69L342 68M144 69L144 72L145 72L144 69z"/>
<path style="fill:#646364; stroke:none;" d="M149 69L149 72L150 72L149 69z"/>
<path style="fill:#9a9b9b; stroke:none;" d="M162 69L162 72L163 72L162 69z"/>
<path style="fill:#646364; stroke:none;" d="M167 69L168 70L167 69M183 69L184 70L183 69M199 69L200 70L199 69M212 69L213 70L212 69z"/>
<path style="fill:#9a9b9b; stroke:none;" d="M226 69L227 70L226 69M230 69L231 70L230 69z"/>
<path style="fill:#646364; stroke:none;" d="M231 69L232 70L231 69M272 69L273 70L272 69z"/>
<path style="fill:#9a9b9b; stroke:none;" d="M290 69L291 70L290 69z"/>
<path style="fill:#646364; stroke:none;" d="M291 69L292 70L291 69M341 69L342 70L341 69z"/>
<path style="fill:#9a9b9b; stroke:none;" d="M167 70L168 71L167 70M182 70L183 71L182 70M188 70L189 71L188 70M198 70L199 71L198 70z"/>
<path style="fill:#646364; stroke:none;" d="M210 70L211 71L210 70z"/>
<path style="fill:#9a9b9b; stroke:none;" d="M211 70L212 71L211 70M232 70L233 71L232 70z"/>
<path style="fill:#646364; stroke:none;" d="M233 70L234 71L233 70M270 70L271 71L270 70z"/>
<path style="fill:#9a9b9b; stroke:none;" d="M292 70L293 71L292 70z"/>
<path style="fill:#646364; stroke:none;" d="M293 70L294 71L293 70z"/>
<path style="fill:#9a9b9b; stroke:none;" d="M341 70L342 71L341 70z"/>
<path style="fill:#646364; stroke:none;" d="M111 71L112 72L111 71M167 71L168 72L167 71z"/>
<path style="fill:#9a9b9b; stroke:none;" d="M181 71L182 72L181 71M197 71L198 72L197 71z"/>
<path style="fill:#646364; stroke:none;" d="M209 71L210 72L209 71M234 71L235 72L234 71M269 71L270 72L269 71M294 71L295 72L294 71M340 71L341 72L340 71z"/>
<path style="fill:#9a9b9b; stroke:none;" d="M61 72L62 73L61 72M167 72L168 73L167 72M187 72L188 73L187 72M235 72L236 73L235 72z"/>
<path style="fill:#646364; stroke:none;" d="M339 72L340 73L339 72z"/>
<path style="fill:#9a9b9b; stroke:none;" d="M161 73L162 74L161 73M186 73L187 74L186 73z"/>
<path style="fill:#646364; stroke:none;" d="M196 73L197 74L196 73z"/>
<path style="fill:#9a9b9b; stroke:none;" d="M236 73L237 74L236 73M296 73L297 74L296 73M83 74L84 75L83 74M145 74L146 75L145 74z"/>
<path style="fill:#646364; stroke:none;" d="M151 74L152 75L151 74z"/>
<path style="fill:#9a9b9b; stroke:none;" d="M160 74L161 75L160 74M166 74L167 75L166 74M185 74L186 75L185 74M195 74L196 75L195 74M237 74L238 75L237 74M297 74L298 75L297 74M338 74L339 75L338 74M12 75L13 76L12 75M19 75L20 76L19 75M42 75L43 76L42 75M55 75L56 76L55 75M59 75L60 76L59 75M84 75L85 76L84 75z"/>
<path style="fill:#646364; stroke:none;" d="M146 75L147 76L146 75M153 75L154 76L153 75z"/>
<path style="fill:#9a9b9b; stroke:none;" d="M154 75L154 76L158 76L154 75z"/>
<path style="fill:#646364; stroke:none;" d="M158 75L159 76L158 75M165 75L166 76L165 75M179 75L180 76L179 75M195 75L196 76L195 75z"/>
<path style="fill:#9a9b9b; stroke:none;" d="M238 75L239 76L238 75M298 75L299 76L298 75M337 75L338 76L337 75M9.33333 76.6667L9.66667 77.3333L9.33333 76.6667z"/>
<path style="fill:#646364; stroke:none;" d="M111 76L112 77L111 76z"/>
<path style="fill:#9a9b9b; stroke:none;" d="M119 76L119 80L123 80L123 79L119 76z"/>
<path style="fill:#646364; stroke:none;" d="M147 76L148 77L147 76M175 76L175 79L176 79L175 76M180 76L181 77L180 76M185 76L186 77L185 76z"/>
<path style="fill:#9a9b9b; stroke:none;" d="M194 76L195 77L194 76z"/>
<path style="fill:#646364; stroke:none;" d="M204 76L205 77L204 76M239 76L240 77L239 76M264 76L265 77L264 76M299 76L300 77L299 76z"/>
<path style="fill:#9a9b9b; stroke:none;" d="M336 76L337 77L336 76M111.333 77.6667L111.667 78.3333L111.333 77.6667M148 77L149 78L148 77M180 77L181 78L180 77z"/>
<path style="fill:#646364; stroke:none;" d="M194 77L195 78L194 77z"/>
<path style="fill:#9a9b9b; stroke:none;" d="M239 77L240 78L239 77M335 77L336 78L335 77z"/>
<path style="fill:#646364; stroke:none;" d="M150 78L151 79L150 78M161 78L162 79L161 78z"/>
<path style="fill:#9a9b9b; stroke:none;" d="M162 78L163 79L162 78z"/>
<path style="fill:#646364; stroke:none;" d="M181 78L182 79L181 78M186 78L187 79L186 78M240 78L241 79L240 78M263 78L264 79L263 78z"/>
<path style="fill:#9a9b9b; stroke:none;" d="M300 78L301 79L300 78M82 79L83 80L82 79z"/>
<path style="fill:#646364; stroke:none;" d="M94 79L95 80L94 79z"/>
<path style="fill:#9a9b9b; stroke:none;" d="M95.6667 79.3333L96.3333 79.6667L95.6667 79.3333z"/>
<path style="fill:#646364; stroke:none;" d="M97 79L98 80L97 79z"/>
<path style="fill:#9a9b9b; stroke:none;" d="M107 79L107 80L111 80L107 79z"/>
<path style="fill:#646364; stroke:none;" d="M123 79L124 80L123 79z"/>
<path style="fill:#9a9b9b; stroke:none;" d="M133 79L133 80L137 80L133 79M152 79L153 80L152 79z"/>
<path style="fill:#646364; stroke:none;" d="M153.667 79.3333L154.333 79.6667L153.667 79.3333M157.667 79.3333L158.333 79.6667L157.667 79.3333z"/>
<path style="fill:#9a9b9b; stroke:none;" d="M159 79L160 80L159 79M182 79L182 80L187 80L182 79M193 79L194 80L193 79M333 79L334 80L333 79z"/>
<path style="fill:#646364; stroke:none;" d="M193 80L194 81L193 80z"/>
<path style="fill:#9a9b9b; stroke:none;" d="M241.333 80.6667L241.667 81.3333L241.333 80.6667M301.333 80.6667L301.667 81.3333L301.333 80.6667M332 80L333 81L332 80M331 81L332 82L331 81z"/>
<path style="fill:#646364; stroke:none;" d="M201.333 82.6667L201.667 83.3333L201.333 82.6667M302 82L303 83L302 82z"/>
<path style="fill:#9a9b9b; stroke:none;" d="M330 82L331 83L330 82M192.333 83.6667L192.667 84.3333L192.333 83.6667z"/>
<path style="fill:#646364; stroke:none;" d="M242 83L243 84L242 83M261 83L262 84L261 83z"/>
<path style="fill:#9a9b9b; stroke:none;" d="M329 83L330 84L329 83M242 84L242 88L243 88L242 84z"/>
<path style="fill:#646364; stroke:none;" d="M192 85L193 86L192 85z"/>
<path style="fill:#9a9b9b; stroke:none;" d="M327 85L328 86L327 85z"/>
<path style="fill:#26b7ee; stroke:none;" d="M301 87L302 88L301 87z"/>
<path style="fill:#646364; stroke:none;" d="M324 87L325 88L324 87M251.333 88.6667L251.667 89.3333L251.333 88.6667M323 88L324 89L323 88M322 89L323 90L322 89M321 90L322 91L321 90M192 91L193 92L192 91z"/>
<path style="fill:#9a9b9b; stroke:none;" d="M242.333 91.6667L242.667 92.3333L242.333 91.6667z"/>
<path style="fill:#646364; stroke:none;" d="M251 91L251 96L252 96L253 91L251 91z"/>
<path style="fill:#9a9b9b; stroke:none;" d="M302.333 91.6667L302.667 92.3333L302.333 91.6667z"/>
<path style="fill:#646364; stroke:none;" d="M320 91L321 92L320 91z"/>
<path style="fill:#9a9b9b; stroke:none;" d="M192.333 92.6667L192.667 93.3333L192.333 92.6667z"/>
<path style="fill:#646364; stroke:none;" d="M319 92L320 93L319 92M201 93L202 94L201 93M242 93L243 94L242 93M261 93L262 94L261 93M302 93L303 94L302 93M318 93L319 94L318 93M317 94L318 95L317 94M316 95L317 96L316 95M193 96L194 97L193 96M241 96L242 97L241 96M262 96L263 97L262 96M315 96L316 97L315 96z"/>
<path style="fill:#9a9b9b; stroke:none;" d="M193 97L194 98L193 97z"/>
<path style="fill:#646364; stroke:none;" d="M314 97L315 98L314 97M203 98L204 99L203 98M240 98L241 99L240 98M253.667 98.3333L254.333 98.6667L253.667 98.3333M263 98L264 99L263 98M300 98L301 99L300 98M313 98L314 99L313 98M194 99L195 100L194 99M252 99L253 100L252 99z"/>
<path style="fill:#9a9b9b; stroke:none;" d="M254 99L255 100L254 99z"/>
<path style="fill:#646364; stroke:none;" d="M312 99L313 100L312 99M204 100L205 101L204 100M251 100L252 101L251 100M264 100L265 101L264 100M299 100L300 101L299 100M311 100L312 101L311 100M195 101L196 102L195 101M205 101L206 102L205 101M238 101L239 102L238 101M250 101L251 102L250 101M255 101L256 102L255 101M265 101L266 102L265 101M298 101L299 102L298 101M310 101L311 102L310 101M237 102L238 103L237 102M249 102L250 103L249 102M266 102L267 103L266 102M309 102L310 103L309 102M196 103L197 104L196 103M248 103L249 104L248 103z"/>
<path style="fill:#9a9b9b; stroke:none;" d="M256 103L257 104L256 103z"/>
<path style="fill:#646364; stroke:none;" d="M308 103L309 104L308 103M235 104L236 105L235 104z"/>
<path style="fill:#9a9b9b; stroke:none;" d="M247 104L248 105L247 104z"/>
<path style="fill:#646364; stroke:none;" d="M268 104L269 105L268 104M307 104L308 105L307 104z"/>
<path style="fill:#9a9b9b; stroke:none;" d="M197 105L198 106L197 105z"/>
<path style="fill:#646364; stroke:none;" d="M209 105L210 106L209 105M234 105L235 106L234 105z"/>
<path style="fill:#9a9b9b; stroke:none;" d="M246 105L247 106L246 105M257 105L258 106L257 105z"/>
<path style="fill:#646364; stroke:none;" d="M269 105L270 106L269 105M294 105L295 106L294 105z"/>
<path style="fill:#9a9b9b; stroke:none;" d="M306 105L307 106L306 105z"/>
<path style="fill:#646364; stroke:none;" d="M198 106L199 107L198 106M232 106L233 107L232 106z"/>
<path style="fill:#9a9b9b; stroke:none;" d="M245 106L246 107L245 106M258 106L259 107L258 106z"/>
<path style="fill:#646364; stroke:none;" d="M292 106L293 107L292 106M305 106L306 107L305 106M199 107L200 108L199 107M231 107L232 108L231 107M244 107L245 108L244 107M259 107L260 108L259 107M272 107L273 108L272 107M304 107L305 108L304 107M200 108L201 109L200 108M215 108L216 109L215 108M228 108L229 109L228 108M243 108L244 109L243 108M260 108L261 109L260 108M275 108L276 109L275 108M288 108L289 109L288 108M303 108L304 109L303 108M201 109L202 110L201 109M219 109L219 110L225 110L219 109M242 109L243 110L242 109M261 109L262 110L261 109M279 109L279 110L285 110L279 109M302 109L303 110L302 109M202 110L203 111L202 110M241 110L242 111L241 110M262 110L263 111L262 110M301 110L302 111L301 110M203 111L204 112L203 111z"/>
<path style="fill:#9a9b9b; stroke:none;" d="M240 111L241 112L240 111z"/>
<path style="fill:#646364; stroke:none;" d="M263 111L264 112L263 111z"/>
<path style="fill:#9a9b9b; stroke:none;" d="M300 111L301 112L300 111M204 112L205 113L204 112M239 112L240 113L239 112M264 112L265 113L264 112M299 112L300 113L299 112z"/>
<path style="fill:#646364; stroke:none;" d="M206 113L207 114L206 113M237 113L238 114L237 113M266 113L267 114L266 113M297 113L298 114L297 113z"/>
<path style="fill:#9a9b9b; stroke:none;" d="M207 114L208 115L207 114z"/>
<path style="fill:#646364; stroke:none;" d="M235 114L236 115L235 114M268 114L269 115L268 114M295 114L296 115L295 114z"/>
<path style="fill:#9a9b9b; stroke:none;" d="M296 114L297 115L296 114M209 115L210 116L209 115z"/>
<path style="fill:#646364; stroke:none;" d="M210 115L211 116L210 115M233 115L234 116L233 115z"/>
<path style="fill:#9a9b9b; stroke:none;" d="M234 115L235 116L234 115M269 115L270 116L269 115z"/>
<path style="fill:#646364; stroke:none;" d="M270 115L271 116L270 115M293 115L294 116L293 115z"/>
<path style="fill:#9a9b9b; stroke:none;" d="M212 116L213 117L212 116z"/>
<path style="fill:#646364; stroke:none;" d="M213 116L214 117L213 116M230 116L231 117L230 116z"/>
<path style="fill:#9a9b9b; stroke:none;" d="M231 116L232 117L231 116M271.667 116.333L272.333 116.667L271.667 116.333z"/>
<path style="fill:#646364; stroke:none;" d="M273 116L274 117L273 116M290 116L291 117L290 116z"/>
<path style="fill:#9a9b9b; stroke:none;" d="M291 116L292 117L291 116M215 117L216 118L215 117z"/>
<path style="fill:#646364; stroke:none;" d="M216 117L216 118L219 118L216 117M225.667 117.333L226.333 117.667L225.667 117.333z"/>
<path style="fill:#9a9b9b; stroke:none;" d="M227.667 117.333L228.333 117.667L227.667 117.333M275.667 117.333L276.333 117.667L275.667 117.333z"/>
<path style="fill:#646364; stroke:none;" d="M277.667 117.333L278.333 117.667L277.667 117.333M285.667 117.333L286.333 117.667L285.667 117.333z"/>
<path style="fill:#9a9b9b; stroke:none;" d="M287.667 117.333L288.333 117.667L287.667 117.333z"/>
</svg>
